<svg width="133" height="41" viewBox="0 0 133 41" fill="none" xmlns="http://www.w3.org/2000/svg">
<path d="M32.23 0.857146L20.7595 17L9.35938 0.857146H0V40.1429H7.95195V23.7143L7.38898 10.0714L20.6892 29.2857H20.9003L34.2004 10.0714L33.6375 23.7143V40.1429H41.5894V0.857146H32.23Z" fill="#242F4B"/>
<path d="M67.1804 0C56.1321 0 47.1246 8.64286 47.1246 20.5C47.1246 32.2143 55.9913 41 67.1804 41C78.4398 41 87.2362 32.2857 87.2362 20.5C87.2362 8.64286 78.299 0 67.1804 0ZM67.1804 7.71429C73.8657 7.71429 79.2139 12.9286 79.2139 20.5C79.2139 28.0714 73.936 33.2857 67.1804 33.2857C60.4247 33.2857 55.1469 28.0714 55.1469 20.5C55.1469 12.9286 60.4951 7.71429 67.1804 7.71429Z" fill="#242F4B"/>
<path d="M92.8884 32.3066H133V40H92.8884V32.3066Z" fill="#242F4B"/>
<path fill-rule="evenodd" clip-rule="evenodd" d="M92.9042 1.02499H100.478V28.7H92.9042V1.02499ZM99.4562 4.61249H93.9021C93.6233 4.61249 93.3972 4.84194 93.3972 5.12499V5.63749C93.3972 5.92054 93.6233 6.14999 93.9021 6.14999H99.4562C99.7351 6.14999 99.9611 5.92054 99.9611 5.63749V5.12499C99.9611 4.84194 99.7351 4.61249 99.4562 4.61249ZM93.9021 7.17499H99.4562C99.7351 7.17499 99.9611 7.40445 99.9611 7.68749V8.19999C99.9611 8.48304 99.7351 8.71249 99.4562 8.71249H93.9021C93.6233 8.71249 93.3972 8.48304 93.3972 8.19999V7.68749C93.3972 7.40445 93.6233 7.17499 93.9021 7.17499ZM99.4562 23.575H93.9021C93.6233 23.575 93.3972 23.8044 93.3972 24.0875V24.6C93.3972 24.883 93.6233 25.1125 93.9021 25.1125H99.4562C99.7351 25.1125 99.9611 24.883 99.9611 24.6V24.0875C99.9611 23.8044 99.7351 23.575 99.4562 23.575Z" fill="#466DD1"/>
<path fill-rule="evenodd" clip-rule="evenodd" d="M104.012 1.02499H111.586V28.7H104.012V1.02499ZM110.576 4.61249H105.022C104.743 4.61249 104.517 4.84194 104.517 5.12499V5.63749C104.517 5.92054 104.743 6.14999 105.022 6.14999H110.576C110.855 6.14999 111.081 5.92054 111.081 5.63749V5.12499C111.081 4.84194 110.855 4.61249 110.576 4.61249ZM105.022 7.17499H110.576C110.855 7.17499 111.081 7.40445 111.081 7.68749V8.19999C111.081 8.48304 110.855 8.71249 110.576 8.71249H105.022C104.743 8.71249 104.517 8.48304 104.517 8.19999V7.68749C104.517 7.40445 104.743 7.17499 105.022 7.17499ZM110.576 23.575H105.022C104.743 23.575 104.517 23.8044 104.517 24.0875V24.6C104.517 24.883 104.743 25.1125 105.022 25.1125H110.576C110.855 25.1125 111.081 24.883 111.081 24.6V24.0875C111.081 23.8044 110.855 23.575 110.576 23.575Z" fill="#466DD1"/>
<path fill-rule="evenodd" clip-rule="evenodd" d="M115.625 3.39055L122.674 0.578064L132.649 26.3344L125.6 29.1469L115.625 3.39055ZM123.027 4.29185L117.858 6.35434C117.599 6.45789 117.471 6.75539 117.573 7.01881L117.758 7.49578C117.86 7.7592 118.153 7.8888 118.412 7.78525L123.581 5.72276C123.841 5.61921 123.969 5.32172 123.867 5.05829L123.682 4.58132C123.58 4.3179 123.287 4.1883 123.027 4.29185ZM118.782 8.73919L123.951 6.6767C124.21 6.57315 124.503 6.70275 124.605 6.96617L124.79 7.44314C124.892 7.70657 124.764 8.00406 124.505 8.10761L119.336 10.1701C119.076 10.2737 118.783 10.1441 118.681 9.88063L118.497 9.40366C118.395 9.14024 118.522 8.84274 118.782 8.73919ZM129.862 21.9397L124.693 24.0022C124.433 24.1058 124.306 24.4033 124.408 24.6667L124.592 25.1437C124.694 25.4071 124.988 25.5367 125.247 25.4331L130.416 23.3707C130.676 23.2671 130.803 22.9696 130.701 22.7062L130.517 22.2292C130.415 21.9658 130.121 21.8362 129.862 21.9397Z" fill="#466DD1"/>
</svg>
