<?xml version="1.0" encoding="UTF-8"?>
<!DOCTYPE svg PUBLIC "-//W3C//DTD SVG 1.1//EN" "http://www.w3.org/Graphics/SVG/1.1/DTD/svg11.dtd">
<!-- Creator: CorelDRAW 2017 -->
<svg xmlns="http://www.w3.org/2000/svg" xml:space="preserve" width="50.7998mm" height="16.9332mm" version="1.1" style="shape-rendering:geometricPrecision; text-rendering:geometricPrecision; image-rendering:optimizeQuality; fill-rule:evenodd; clip-rule:evenodd"
viewBox="0 0 5079.98 1693.32"
 xmlns:xlink="http://www.w3.org/1999/xlink">
 <defs>
  <style type="text/css">
   <![CDATA[
    .fil3 {fill:#345D32}
    .fil2 {fill:#2B2A29;fill-rule:nonzero}
    .fil0 {fill:#2B2A29;fill-rule:nonzero}
    .fil1 {fill:#345D32;fill-rule:nonzero}
   ]]>
  </style>
 </defs>
 <g id="Слой_x0020_1">
  <metadata id="CorelCorpID_0Corel-Layer"/>
  <g id="_837921936">
   <g>
    <path class="fil0" d="M2570.87 1035.97c0,2.53 -1.24,4.23 -3.82,5.15 -2.54,0.89 -7.84,1.8 -15.84,2.78 -8.01,0.92 -15.92,1.4 -23.8,1.4 -20.47,0 -37,-6.23 -49.47,-18.73 -12.5,-12.51 -18.73,-30.85 -18.73,-55.01l0 -35.47c0,-18.86 3.46,-33.74 10.37,-44.71 6.91,-10.94 15.48,-18.54 25.7,-22.8 10.17,-4.23 20.9,-6.35 32.13,-6.35 7.72,0 15.63,0.47 23.75,1.4 8.13,0.97 13.44,1.89 15.97,2.86 2.5,0.92 3.74,2.65 3.74,5.14l0 16.17c0,3.37 -1.61,5.07 -4.83,5.07l-0.44 0c-15,-1.26 -27.58,-1.89 -37.71,-1.89 -23.32,0 -34.99,15.03 -34.99,45.11l0 35.47c0,30.07 11.67,45.12 34.99,45.12 5.66,0 11.94,-0.25 18.85,-0.73l18.86 -1.29 0.44 0c3.22,0 4.83,1.69 4.83,5.07l0 16.24zm98.4 -102.33l-32.29 0c-3.38,0 -5.5,0.68 -6.43,2.09 -0.89,1.4 -1.33,3.7 -1.33,6.84l0 95.77c0,1.33 -0.48,2.5 -1.41,3.55 -0.96,1 -2.09,1.52 -3.42,1.52l-22.15 0c-1.25,0 -2.37,-0.52 -3.37,-1.52 -0.97,-1.05 -1.46,-2.22 -1.46,-3.55l0 -96.02c0,-11.3 2.53,-19.94 7.65,-25.98 5.1,-5.98 15.76,-9 31.92,-9l32.29 0c16.25,0 26.9,3.02 31.97,9 5.07,6.04 7.6,14.68 7.6,25.98l0 96.02c0,1.33 -0.48,2.5 -1.41,3.55 -0.93,1 -2.09,1.52 -3.42,1.52l-22.15 0c-1.33,0 -2.46,-0.52 -3.42,-1.52 -0.93,-1.05 -1.41,-2.22 -1.41,-3.55l0 -95.77c0,-3.14 -0.44,-5.44 -1.29,-6.84 -0.88,-1.41 -3.01,-2.09 -6.47,-2.09zm182.11 46.76c0,4.06 -1.6,6.11 -4.82,6.11l-78.57 0 0 0.73c0,8.44 2.21,15.68 6.59,21.67 4.39,5.95 11.82,8.93 22.28,8.93 7.76,0 15.52,-0.28 23.2,-0.81l21.19 -1.65 0.73 0c2.89,0 4.33,1.21 4.33,3.67l0 15.87c0,3.14 -0.76,5.04 -2.32,5.6 -1.57,0.6 -6.68,1.52 -15.29,2.85 -8.6,1.29 -19.98,1.93 -34.21,1.93 -16.73,0 -30.64,-5.19 -41.75,-15.56 -11.13,-10.38 -16.68,-25.37 -16.68,-45l0 -17.77c0,-19.1 5.14,-34.1 15.36,-44.96 10.25,-10.89 24.45,-16.32 42.62,-16.32 17.82,0 31.81,5.55 42.02,16.6 10.21,11.1 15.32,25.98 15.32,44.68l0 13.43zm-32.05 -16.61l0 -0.96c0,-9.16 -2.28,-16.44 -6.91,-21.72 -4.67,-5.3 -10.77,-7.96 -18.38,-7.96 -7.8,0 -14.03,2.66 -18.74,7.96 -4.7,5.28 -7.07,12.56 -7.07,21.72l0 0.96 51.1 0zm188.96 55.7c1.36,0 2.49,0.48 3.41,1.4 0.97,0.97 1.41,2.09 1.41,3.42l0 47.61c0,1.24 -0.44,2.38 -1.41,3.34 -0.92,1.01 -2.05,1.48 -3.41,1.48l-22.24 0c-1.29,0 -2.37,-0.47 -3.3,-1.48 -0.97,-0.96 -1.44,-2.1 -1.44,-3.34l0 -28.51 -63.01 0c-16.17,0 -26.82,-3.01 -31.93,-9 -5.11,-6.03 -7.64,-14.68 -7.64,-25.98l0 -96.02c0,-1.33 0.48,-2.5 1.45,-3.54 1,-1 2.12,-1.53 3.37,-1.53l22.16 0c1.33,0 2.45,0.53 3.41,1.53 0.93,1.04 1.41,2.21 1.41,3.54l0 95.78c0,3.05 0.44,5.31 1.33,6.75 0.93,1.49 3.05,2.21 6.44,2.21l32.28 0c2.89,0 4.91,-0.6 6.08,-1.72 1.12,-1.13 1.68,-3.54 1.68,-7.24l0 -95.78c0,-1.33 0.48,-2.5 1.41,-3.54 0.96,-1 2.09,-1.53 3.42,-1.53l22.15 0c1.33,0 2.5,0.53 3.42,1.53 0.93,1.04 1.41,2.21 1.41,3.54l0 96.02c0,3.3 -0.32,7 -0.93,11.06l19.07 0zm135.59 19.1c0,1.33 -0.48,2.45 -1.41,3.42 -0.93,0.91 -2.09,1.4 -3.42,1.4l-22.15 0c-1.33,0 -2.46,-0.49 -3.42,-1.4 -0.93,-0.97 -1.41,-2.09 -1.41,-3.42l0 -5.55c-11.86,8 -24.48,12.02 -37.92,12.02 -13.91,0 -24.33,-3.94 -31.28,-11.78 -6.96,-7.85 -10.42,-21.92 -10.42,-42.18l0 -78.69c0,-1.33 0.49,-2.5 1.46,-3.54 1,-1 2.12,-1.53 3.37,-1.53l22.15 0c1.33,0 2.46,0.53 3.42,1.53 0.93,1.04 1.41,2.21 1.41,3.54l0 78.69c0,10.3 1.33,17.45 3.98,21.43 2.7,4.02 8.21,6.03 16.61,6.03 6.31,0 15.36,-3.21 27.22,-9.65l0 -96.5c0,-1.33 0.48,-2.5 1.41,-3.54 0.96,-1 2.09,-1.53 3.42,-1.53l22.15 0c1.33,0 2.49,0.53 3.42,1.53 0.93,1.04 1.41,2.21 1.41,3.54l0 126.18zm132.17 0c0,1.33 -0.44,2.45 -1.4,3.42 -0.93,0.91 -2.06,1.4 -3.42,1.4l-20.47 0c-1.37,0 -2.5,-0.49 -3.42,-1.4 -0.97,-0.97 -1.45,-2.09 -1.45,-3.42l0 -3.9c-11.62,7.07 -22.96,10.61 -34.02,10.61 -13.42,0 -23.76,-3.38 -30.91,-10.13 -7.21,-6.76 -10.79,-16.81 -10.79,-30.16l0 -0.96c0,-14.04 4.67,-24.49 14,-31.37 9.37,-6.87 24.33,-10.33 44.91,-10.33l15.17 0 0 -10.58c0,-7.56 -1.65,-12.71 -5,-15.43 -3.33,-2.74 -8.72,-4.15 -16.19,-4.15 -7.28,0 -14.28,0.2 -20.96,0.6l-18.37 1.29 -1.21 0c-2.89,0 -4.35,-1.37 -4.35,-4.1l0 -15.44c0,-1.65 0.61,-2.98 1.82,-3.95 1.25,-1 6.43,-2.04 15.68,-3.17 9.2,-1.16 18.37,-1.73 27.39,-1.73 35.34,0 52.99,15.36 52.99,46.08l0 86.82zm-31.8 -25.33l0 -29.68 -15.17 0c-9.37,0 -16.16,1.37 -20.46,4.1 -4.26,2.77 -6.4,8.2 -6.4,16.37l0 0.96c0,5.51 1.21,9.37 3.7,11.58 2.46,2.25 7.04,3.38 13.72,3.38 8.08,0 16.28,-2.25 24.61,-6.71zm148.57 26.01l-23.92 -101.53c-0.81,-3.22 -2.58,-4.82 -5.32,-4.82 -2.72,0 -4.49,1.6 -5.3,4.82l-23.56 101.53c-0.61,2.77 -2.13,4.14 -4.59,4.14l-24.17 0c-2.89,0 -4.33,-1.37 -4.33,-4.14 0,-0.12 0.07,-0.52 0.24,-1.17l28.26 -107.88c4.26,-16.37 15.4,-24.53 33.45,-24.53 18.07,0 29.28,8.16 33.58,24.53l28.76 109.05c0,2.77 -1.45,4.14 -4.35,4.14l-24.17 0c-2.45,0 -3.98,-1.37 -4.58,-4.14zm168.8 -0.68c0,1.33 -0.47,2.45 -1.4,3.42 -0.93,0.91 -2.09,1.4 -3.42,1.4l-22.16 0c-1.33,0 -2.45,-0.49 -3.41,-1.4 -0.93,-0.97 -1.41,-2.09 -1.41,-3.42l0 -5.55c-11.86,8 -24.49,12.02 -37.92,12.02 -13.91,0 -24.33,-3.94 -31.28,-11.78 -6.96,-7.85 -10.42,-21.92 -10.42,-42.18l0 -78.69c0,-1.33 0.49,-2.5 1.45,-3.54 1.01,-1 2.13,-1.53 3.38,-1.53l22.15 0c1.33,0 2.46,0.53 3.42,1.53 0.93,1.04 1.41,2.21 1.41,3.54l0 78.69c0,10.3 1.33,17.45 3.98,21.43 2.7,4.02 8.2,6.03 16.61,6.03 6.31,0 15.36,-3.21 27.22,-9.65l0 -96.5c0,-1.33 0.48,-2.5 1.41,-3.54 0.96,-1 2.08,-1.53 3.41,-1.53l22.16 0c1.33,0 2.49,0.53 3.42,1.53 0.93,1.04 1.4,2.21 1.4,3.54l0 126.18zm120.64 -34.54c0,27.5 -18.18,41.25 -54.53,41.25 -8.97,0 -17.78,-0.68 -26.46,-2.05 -8.68,-1.4 -13.63,-2.45 -14.88,-3.26 -1.28,-0.8 -1.89,-1.72 -1.89,-2.81l0 -16.73c0,-2.21 1.29,-3.3 3.86,-3.3l0.24 0c16.98,1.74 30,2.58 39.13,2.58 9.25,0 15.36,-1.12 18.3,-3.34 2.97,-2.25 4.42,-6.36 4.42,-12.34l0 -2.33c0,-6.12 -1.49,-10.3 -4.5,-12.55 -3.06,-2.26 -7.72,-3.38 -14.12,-3.38l-36.14 0c-2.58,0 -3.91,-1.12 -3.91,-3.42l0 -16.97c0,-2.33 1.33,-3.5 3.91,-3.5l36.14 0c6.47,0 11.18,-1.04 14.15,-3.13 2.98,-2.1 4.47,-6.19 4.47,-12.31l0 -2c0,-5.75 -1.81,-9.45 -5.38,-11.14 -3.63,-1.7 -9.42,-2.54 -17.34,-2.54 -4.78,0 -10.66,0.28 -17.57,0.84l-21.56 1.77 -0.24 0c-2.57,0 -3.86,-1.16 -3.86,-3.41l0 -16.16c0,-1.09 0.61,-2.02 1.89,-2.82 1.25,-0.81 6.2,-1.85 14.88,-3.26 8.68,-1.36 17.49,-2.05 26.46,-2.05 19.02,0 32.85,3.22 41.54,9.61 8.64,6.39 12.99,16.13 12.99,29.16l0 2c0,12.11 -5.79,21.16 -17.42,27.23 5.43,2.09 9.66,5.87 12.79,11.29 3.1,5.44 4.63,10.98 4.63,16.74l0 2.33zm138.64 34.54c0,1.33 -0.48,2.45 -1.4,3.42 -0.93,0.91 -2.09,1.4 -3.42,1.4l-22.16 0c-1.33,0 -2.45,-0.49 -3.42,-1.4 -0.92,-0.97 -1.4,-2.09 -1.4,-3.42l0 -5.55c-11.86,8 -24.49,12.02 -37.92,12.02 -13.92,0 -24.33,-3.94 -31.28,-11.78 -6.96,-7.85 -10.42,-21.92 -10.42,-42.18l0 -78.69c0,-1.33 0.49,-2.5 1.45,-3.54 1,-1 2.13,-1.53 3.37,-1.53l22.16 0c1.33,0 2.45,0.53 3.42,1.53 0.93,1.04 1.4,2.21 1.4,3.54l0 78.69c0,10.3 1.33,17.45 3.99,21.43 2.69,4.02 8.2,6.03 16.6,6.03 6.32,0 15.37,-3.21 27.23,-9.65l0 -96.5c0,-1.33 0.48,-2.5 1.4,-3.54 0.97,-1 2.09,-1.53 3.42,-1.53l22.16 0c1.33,0 2.49,0.53 3.42,1.53 0.92,1.04 1.4,2.21 1.4,3.54l0 126.18zm144.07 -53.85c0,19.27 -4.82,34.15 -14.51,44.72 -9.73,10.57 -24.13,15.84 -43.18,15.84 -7,0 -14.72,-0.56 -23.21,-1.64l0 42.74c0,1.29 -0.48,2.37 -1.4,3.37 -0.97,0.97 -2.09,1.46 -3.42,1.46l-22.16 0c-1.33,0 -2.49,-0.49 -3.42,-1.46 -0.96,-1 -1.4,-2.08 -1.4,-3.37l0 -167.97c0,-2.28 0.84,-4.02 2.57,-5.14 1.73,-1.12 8.16,-2.7 19.34,-4.66 11.14,-1.93 22.15,-2.94 33.1,-2.94 18.69,0 32.97,5.23 42.86,15.6 9.89,10.42 14.83,25.42 14.83,44.96l0 18.49zm-31.92 0l0 -18.49c0,-12.26 -2.09,-21.07 -6.27,-26.46 -4.23,-5.35 -10.7,-8.04 -19.5,-8.04 -9.58,0 -17.34,0.52 -23.21,1.64l0 84.2c8.33,1.14 16.05,1.65 23.21,1.65 8.8,0 15.27,-2.65 19.5,-8.04 4.18,-5.38 6.27,-14.19 6.27,-26.46zm169.64 0.49c0,18.29 -5.1,32.89 -15.35,43.75 -10.26,10.89 -24.33,16.32 -42.22,16.32 -18.02,0 -32.14,-5.43 -42.39,-16.32 -10.22,-10.86 -15.36,-25.46 -15.36,-43.75l0 -19.46c0,-18.3 5.14,-32.9 15.36,-43.76 10.25,-10.89 24.37,-16.32 42.39,-16.32 17.89,0 31.96,5.43 42.22,16.32 10.25,10.86 15.35,25.46 15.35,43.76l0 19.46zm-31.8 0l0 -19.46c0,-10.3 -2.25,-18.3 -6.76,-24.01 -4.5,-5.75 -10.85,-8.61 -19.01,-8.61 -8.17,0 -14.52,2.86 -19.03,8.61 -4.54,5.71 -6.79,13.71 -6.79,24.01l0 19.46c0,10.13 2.21,18.1 6.68,23.89 4.42,5.82 10.81,8.72 19.14,8.72 8.16,0 14.51,-2.86 19.01,-8.6 4.51,-5.72 6.76,-13.72 6.76,-24.01zm173.06 20.03c0,13.95 -5.23,24.12 -15.64,30.51 -10.37,6.36 -27.62,9.53 -51.75,9.53 -10.21,0 -19.42,-0.32 -27.7,-1.01 -8.25,-0.68 -13.44,-1.72 -15.61,-3.25 -2.16,-1.49 -3.21,-4.06 -3.21,-7.76l0 -116.05c0,-2.89 0.72,-5.22 2.17,-6.99 1.44,-1.77 6.51,-2.98 15.24,-3.58 8.72,-0.65 17.89,-0.97 27.46,-0.97 26.54,0 44.52,3.09 53.97,9.33 9.4,6.2 14.11,15.92 14.11,29.19l0 1.53c0,6.07 -1.73,11.62 -5.19,16.69 -3.46,5.06 -8.41,8.64 -14.83,10.78 13.98,4.54 20.98,14.75 20.98,30.63l0 1.42zm-31.92 -59.52l0 -1.53c0,-6.75 -2.3,-10.94 -6.92,-12.54 -4.59,-1.61 -12.26,-2.42 -23,-2.42 -7.4,0 -14.15,0.16 -20.27,0.49l0 32.61 21.31 0c9.17,0 16.29,-1.05 21.32,-3.22 5.03,-2.18 7.56,-6.63 7.56,-13.39zm1.04 56.9l0 -1.41c0,-7.52 -2.41,-12.34 -7.32,-14.48 -4.86,-2.12 -12.39,-3.17 -22.6,-3.17l-21.31 0 0 37.68c4.63,0.16 9.54,0.24 14.72,0.24 13.68,0 23.17,-1.33 28.51,-3.94 5.34,-2.62 8,-7.6 8,-14.92zm157.02 35.95c0,1.33 -0.44,2.45 -1.4,3.42 -0.93,0.91 -2.06,1.4 -3.42,1.4l-20.47 0c-1.37,0 -2.49,-0.49 -3.42,-1.4 -0.97,-0.97 -1.44,-2.09 -1.44,-3.42l0 -3.9c-11.63,7.07 -22.97,10.61 -34.03,10.61 -13.42,0 -23.76,-3.38 -30.91,-10.13 -7.21,-6.76 -10.79,-16.81 -10.79,-30.16l0 -0.96c0,-14.04 4.67,-24.49 14,-31.37 9.37,-6.87 24.33,-10.33 44.91,-10.33l15.17 0 0 -10.58c0,-7.56 -1.65,-12.71 -5,-15.43 -3.33,-2.74 -8.72,-4.15 -16.19,-4.15 -7.28,0 -14.28,0.2 -20.96,0.6l-18.37 1.29 -1.21 0c-2.89,0 -4.35,-1.37 -4.35,-4.1l0 -15.44c0,-1.65 0.61,-2.98 1.82,-3.95 1.25,-1 6.43,-2.04 15.68,-3.17 9.2,-1.16 18.37,-1.73 27.39,-1.73 35.34,0 52.99,15.36 52.99,46.08l0 86.82zm-31.8 -25.33l0 -29.68 -15.17 0c-9.37,0 -16.16,1.37 -20.46,4.1 -4.26,2.77 -6.4,8.2 -6.4,16.37l0 0.96c0,5.51 1.21,9.37 3.7,11.58 2.46,2.25 7.04,3.38 13.72,3.38 8.08,0 16.28,-2.25 24.61,-6.71zm94.97 25.08c0,1.33 -0.48,2.5 -1.41,3.55 -0.96,1 -2.08,1.52 -3.41,1.52l-22.16 0c-1.25,0 -2.37,-0.52 -3.37,-1.52 -0.97,-1.05 -1.45,-2.22 -1.45,-3.55l0 -125.93c0,-1.33 0.48,-2.5 1.45,-3.54 1,-1 2.12,-1.53 3.37,-1.53l22.16 0c1.33,0 2.45,0.53 3.41,1.53 0.93,1.04 1.41,2.21 1.41,3.54l0 48.77 47.81 0 0 -48.77c0,-1.33 0.48,-2.5 1.41,-3.54 0.96,-1 2.09,-1.53 3.42,-1.53l22.15 0c1.33,0 2.5,0.53 3.42,1.53 0.93,1.04 1.41,2.21 1.41,3.54l0 125.93c0,1.33 -0.48,2.5 -1.41,3.55 -0.92,1 -2.09,1.52 -3.42,1.52l-22.15 0c-1.33,0 -2.46,-0.52 -3.42,-1.52 -0.93,-1.05 -1.41,-2.22 -1.41,-3.55l0 -53.36 -47.81 0 0 53.36zm142.79 0c0,1.33 -0.48,2.5 -1.41,3.55 -0.96,1 -2.09,1.52 -3.42,1.52l-22.15 0c-1.25,0 -2.37,-0.52 -3.38,-1.52 -0.96,-1.05 -1.45,-2.22 -1.45,-3.55l0 -125.93c0,-1.33 0.49,-2.5 1.45,-3.54 1.01,-1 2.13,-1.53 3.38,-1.53l22.15 0c1.33,0 2.46,0.53 3.42,1.53 0.93,1.04 1.41,2.21 1.41,3.54l0 48.77 47.81 0 0 -48.77c0,-1.33 0.48,-2.5 1.41,-3.54 0.96,-1 2.09,-1.53 3.42,-1.53l22.15 0c1.33,0 2.49,0.53 3.42,1.53 0.93,1.04 1.41,2.21 1.41,3.54l0 125.93c0,1.33 -0.48,2.5 -1.41,3.55 -0.93,1 -2.09,1.52 -3.42,1.52l-22.15 0c-1.33,0 -2.46,-0.52 -3.42,-1.52 -0.93,-1.05 -1.41,-2.22 -1.41,-3.55l0 -53.36 -47.81 0 0 53.36zm141.58 -89.06l16.41 0c41.38,0 62.08,15.56 62.08,46.65l0 0.96c0,31 -20.7,46.52 -62.08,46.52 -8.33,0 -17.21,-0.36 -26.63,-1.05 -9.44,-0.72 -15.4,-1.56 -17.85,-2.49 -2.49,-0.92 -3.74,-2.41 -3.74,-4.46l0 -123c0,-1.33 0.49,-2.5 1.45,-3.54 0.92,-1 2.05,-1.53 3.38,-1.53l22.15 0c1.33,0 2.5,0.53 3.42,1.53 0.96,1.04 1.41,2.21 1.41,3.54l0 36.87zm0 26.05l0 40.86c7.32,0.32 12.78,0.49 16.41,0.49 10.57,0 18.21,-1.54 22.87,-4.59 4.71,-3.06 7.04,-8.13 7.04,-15.2l0 -0.96c0,-7.53 -2.33,-12.91 -6.95,-16.21 -4.63,-3.26 -12.31,-4.86 -22.96,-4.86 -8.89,0 -14.36,0.16 -16.41,0.47zm131.48 63.01c0,1.33 -0.47,2.5 -1.4,3.55 -0.97,1 -2.09,1.52 -3.42,1.52l-22.16 0c-1.32,0 -2.45,-0.52 -3.41,-1.52 -0.92,-1.05 -1.41,-2.22 -1.41,-3.55l0 -126.17c0,-1.33 0.49,-2.46 1.41,-3.42 0.96,-0.93 2.09,-1.41 3.41,-1.41l22.16 0c1.33,0 2.45,0.48 3.42,1.41 0.93,0.96 1.4,2.09 1.4,3.42l0 126.17zm46.29 -182.83l17.66 0c1.6,0 2.61,0.96 3.09,2.81 2.82,10.62 9.25,15.92 19.3,15.92 10.14,0 16.57,-5.3 19.34,-15.92 0.45,-1.85 1.53,-2.81 3.18,-2.81l17.54 0c1.81,0 2.72,0.68 2.72,2.01 0,2.97 -1.35,7.52 -4.02,13.59 -2.65,6.11 -7.35,11.29 -14.07,15.56 -6.71,4.26 -14.96,6.43 -24.69,6.43 -9.72,0 -17.93,-2.17 -24.61,-6.43 -6.67,-4.27 -11.37,-9.45 -14.07,-15.56 -2.74,-6.07 -4.06,-10.62 -4.06,-13.59 0,-1.33 0.88,-2.01 2.69,-2.01zm95.3 183.08c0,1.33 -0.48,2.45 -1.4,3.42 -0.93,0.91 -2.09,1.4 -3.42,1.4l-22.16 0c-1.33,0 -2.45,-0.49 -3.42,-1.4 -0.92,-0.97 -1.4,-2.09 -1.4,-3.42l0 -5.55c-11.86,8 -24.49,12.02 -37.92,12.02 -13.92,0 -24.33,-3.94 -31.28,-11.78 -6.96,-7.85 -10.42,-21.92 -10.42,-42.18l0 -78.69c0,-1.33 0.49,-2.5 1.45,-3.54 1,-1 2.13,-1.53 3.37,-1.53l22.16 0c1.33,0 2.45,0.53 3.42,1.53 0.93,1.04 1.4,2.21 1.4,3.54l0 78.69c0,10.3 1.33,17.45 3.99,21.43 2.69,4.02 8.2,6.03 16.6,6.03 6.32,0 15.37,-3.21 27.23,-9.65l0 -96.5c0,-1.33 0.48,-2.5 1.4,-3.54 0.97,-1 2.09,-1.53 3.42,-1.53l22.16 0c1.33,0 2.49,0.53 3.42,1.53 0.92,1.04 1.4,2.21 1.4,3.54l0 126.18zm-2475.52 258.23l26.02 -103.66c0.64,-2.77 2.25,-4.14 4.82,-4.14l24.65 0c1.17,0 2.17,0.4 3.05,1.24 0.85,0.81 1.3,1.78 1.3,2.9 0,0.36 -0.09,0.84 -0.25,1.4l-40.29 140.9c-4.63,16.25 -10.58,26.62 -17.86,31.17 -7.23,4.5 -17.73,6.75 -31.36,6.75 -5.35,0 -10.81,-0.44 -16.4,-1.28 -5.55,-0.89 -9.33,-1.74 -11.3,-2.54 -1.98,-0.84 -2.94,-1.97 -2.94,-3.46l0 -15.44c0,-2.93 1.61,-4.38 4.83,-4.38l0.48 0 27.19 1.53c5.42,0 9.64,-1.04 12.61,-3.18 2.98,-2.09 5.76,-8.65 8.37,-19.54l-3.53 0c-5.96,0 -10.54,-1.81 -13.68,-5.43 -3.14,-3.62 -5.59,-8.48 -7.4,-14.6l-31.6 -110.5c-0.12,-0.47 -0.2,-1.04 -0.2,-1.64 0,-2.62 1.52,-3.9 4.58,-3.9l24.37 0c2.37,0 3.9,1.44 4.62,4.38l24.37 98.11c0.8,3.55 1.89,5.31 3.29,5.31l2.26 0zm81.5 -102.73c0,-1.33 0.49,-2.5 1.46,-3.54 1,-1.01 2.12,-1.53 3.37,-1.53l22.15 0c1.33,0 2.46,0.52 3.42,1.53 0.93,1.04 1.41,2.21 1.41,3.54l0 31.8c0,10.62 1.24,17.65 3.82,21.15 2.53,3.5 7.88,5.23 15.96,5.23 8.25,0 17.58,-2.73 28.03,-8.24l0 -49.94c0,-1.33 0.48,-2.5 1.41,-3.54 0.96,-1.01 2.09,-1.53 3.42,-1.53l22.15 0c1.33,0 2.49,0.52 3.42,1.53 0.93,1.04 1.41,2.21 1.41,3.54l0 126.17c0,1.33 -0.48,2.46 -1.41,3.42 -0.93,0.92 -2.09,1.41 -3.42,1.41l-22.15 0c-1.33,0 -2.46,-0.49 -3.42,-1.41 -0.93,-0.96 -1.41,-2.09 -1.41,-3.42l0 -49.94c-9.49,5.95 -21.63,8.93 -36.39,8.93 -28.83,0 -43.23,-17.77 -43.23,-53.36l0 -31.8zm253.97 67.99c0,4.06 -1.6,6.11 -4.82,6.11l-78.57 0 0 0.73c0,8.44 2.21,15.68 6.59,21.67 4.39,5.95 11.82,8.92 22.28,8.92 7.75,0 15.52,-0.28 23.2,-0.8l21.19 -1.65 0.72 0c2.9,0 4.34,1.21 4.34,3.66l0 15.88c0,3.14 -0.76,5.03 -2.32,5.59 -1.58,0.6 -6.68,1.53 -15.29,2.86 -8.6,1.28 -19.98,1.93 -34.21,1.93 -16.73,0 -30.64,-5.19 -41.75,-15.56 -11.13,-10.38 -16.68,-25.38 -16.68,-45l0 -17.77c0,-19.11 5.14,-34.1 15.36,-44.96 10.25,-10.9 24.44,-16.32 42.62,-16.32 17.82,0 31.81,5.55 42.02,16.6 10.21,11.1 15.32,25.98 15.32,44.68l0 13.43zm-32.05 -16.61l0 -0.96c0,-9.17 -2.28,-16.45 -6.91,-21.72 -4.67,-5.3 -10.77,-7.96 -18.38,-7.96 -7.8,0 -14.03,2.66 -18.74,7.96 -4.7,5.27 -7.07,12.55 -7.07,21.72l0 0.96 51.1 0zm170.57 20.23c0,18.78 -5.1,33.69 -15.31,44.71 -10.21,11.06 -24.29,16.57 -42.26,16.57 -18.1,0 -32.21,-5.51 -42.43,-16.57 -10.21,-11.02 -15.32,-25.93 -15.32,-44.71l0 -13.43c0,-12.87 0.32,-23.48 0.97,-31.85 0.6,-8.37 2.05,-16.08 4.34,-23.2 2.29,-7.11 5.83,-13.31 10.74,-18.58 4.86,-5.27 10.46,-9.09 16.85,-11.46 6.35,-2.41 17.17,-5.03 32.48,-7.84 4.02,-0.72 7.37,-1.84 10.1,-3.42 2.69,-1.56 4.38,-4.5 5.11,-8.84 0.48,-2.14 1.68,-3.18 3.65,-3.18l25.58 0c1.93,0 2.94,1.04 2.94,3.18 0,17.93 -10.98,29.15 -32.9,33.69 -13.35,2.74 -21.91,4.62 -25.77,5.59 -3.86,1.01 -7.4,2.45 -10.66,4.38 -3.26,1.93 -5.5,4.63 -6.67,8.17 5.75,-2.89 12.74,-4.35 20.99,-4.35 17.89,0 31.96,5.48 42.22,16.37 10.25,10.94 15.35,25.49 15.35,43.71l0 11.06zm-31.8 0l0 -11.06c0,-11.22 -2.09,-19.47 -6.35,-24.69 -4.23,-5.23 -10.74,-7.84 -19.42,-7.84 -17.21,0 -25.82,10.85 -25.82,32.53l0 11.06c0,11.86 2.14,20.46 6.44,25.81 4.26,5.35 10.73,8 19.38,8 17.17,0 25.77,-11.26 25.77,-33.81zm90.95 54.32c0,1.33 -0.47,2.49 -1.4,3.54 -0.97,1 -2.09,1.53 -3.42,1.53l-22.16 0c-1.24,0 -2.37,-0.53 -3.37,-1.53 -0.96,-1.05 -1.45,-2.21 -1.45,-3.54l0 -125.93c0,-1.33 0.49,-2.5 1.45,-3.54 1,-1.01 2.13,-1.53 3.37,-1.53l22.16 0c1.33,0 2.45,0.52 3.42,1.53 0.93,1.04 1.4,2.21 1.4,3.54l0 48.77 47.82 0 0 -48.77c0,-1.33 0.48,-2.5 1.4,-3.54 0.97,-1.01 2.09,-1.53 3.42,-1.53l22.16 0c1.33,0 2.49,0.52 3.42,1.53 0.92,1.04 1.4,2.21 1.4,3.54l0 125.93c0,1.33 -0.48,2.49 -1.4,3.54 -0.93,1 -2.09,1.53 -3.42,1.53l-22.16 0c-1.33,0 -2.45,-0.53 -3.42,-1.53 -0.92,-1.05 -1.4,-2.21 -1.4,-3.54l0 -53.36 -47.82 0 0 53.36zm222.17 -53.12c0,18.3 -5.11,32.9 -15.36,43.75 -10.26,10.9 -24.33,16.33 -42.22,16.33 -18.01,0 -32.13,-5.43 -42.38,-16.33 -10.22,-10.85 -15.36,-25.45 -15.36,-43.75l0 -19.45c0,-18.31 5.14,-32.9 15.36,-43.76 10.25,-10.9 24.37,-16.32 42.38,-16.32 17.89,0 31.96,5.42 42.22,16.32 10.25,10.86 15.36,25.45 15.36,43.76l0 19.45zm-31.81 0l0 -19.45c0,-10.3 -2.25,-18.31 -6.75,-24.01 -4.51,-5.76 -10.86,-8.61 -19.02,-8.61 -8.17,0 -14.52,2.85 -19.03,8.61 -4.54,5.7 -6.79,13.71 -6.79,24.01l0 19.45c0,10.14 2.21,18.1 6.68,23.89 4.42,5.83 10.81,8.72 19.14,8.72 8.16,0 14.51,-2.85 19.02,-8.6 4.5,-5.71 6.75,-13.71 6.75,-24.01zm110.5 -8.36c0,2.89 -1.53,4.35 -4.58,4.35l-47.25 0c-3.22,0 -4.83,-1.46 -4.83,-4.35l0 -15.2c0,-1.33 0.49,-2.45 1.41,-3.29 0.92,-0.89 2.09,-1.3 3.42,-1.3l47.25 0c3.05,0 4.58,1.53 4.58,4.59l0 15.2zm57.86 61.48c0,1.33 -0.47,2.49 -1.4,3.54 -0.97,1 -2.09,1.53 -3.42,1.53l-22.16 0c-1.24,0 -2.37,-0.53 -3.37,-1.53 -0.96,-1.05 -1.45,-2.21 -1.45,-3.54l0 -125.93c0,-1.33 0.49,-2.5 1.45,-3.54 1,-1.01 2.13,-1.53 3.37,-1.53l22.16 0c1.33,0 2.45,0.52 3.42,1.53 0.93,1.04 1.4,2.21 1.4,3.54l0 48.77 47.82 0 0 -48.77c0,-1.33 0.48,-2.5 1.4,-3.54 0.97,-1.01 2.09,-1.53 3.42,-1.53l22.16 0c1.33,0 2.49,0.52 3.42,1.53 0.92,1.04 1.4,2.21 1.4,3.54l0 125.93c0,1.33 -0.48,2.49 -1.4,3.54 -0.93,1 -2.09,1.53 -3.42,1.53l-22.16 0c-1.33,0 -2.45,-0.53 -3.42,-1.53 -0.92,-1.05 -1.4,-2.21 -1.4,-3.54l0 -53.36 -47.82 0 0 53.36z"/>
    <path class="fil0" d="M3618.83 1320.26c0,1.33 -0.44,2.46 -1.4,3.42 -0.93,0.92 -2.05,1.41 -3.42,1.41l-20.47 0c-1.37,0 -2.49,-0.49 -3.42,-1.41 -0.96,-0.96 -1.44,-2.09 -1.44,-3.42l0 -3.89c-11.63,7.07 -22.96,10.61 -34.03,10.61 -13.42,0 -23.75,-3.38 -30.91,-10.13 -7.2,-6.76 -10.78,-16.81 -10.78,-30.16l0 -0.97c0,-14.03 4.66,-24.48 13.99,-31.36 9.37,-6.88 24.33,-10.33 44.91,-10.33l15.17 0 0 -10.58c0,-7.56 -1.65,-12.71 -4.99,-15.44 -3.34,-2.73 -8.72,-4.15 -16.2,-4.15 -7.28,0 -14.28,0.21 -20.96,0.61l-18.37 1.29 -1.21 0c-2.89,0 -4.34,-1.37 -4.34,-4.11l0 -15.44c0,-1.65 0.61,-2.98 1.82,-3.94 1.24,-1 6.42,-2.04 15.68,-3.18 9.2,-1.16 18.37,-1.72 27.38,-1.72 35.35,0 52.99,15.35 52.99,46.08l0 86.81zm-31.8 -25.33l0 -29.67 -15.17 0c-9.36,0 -16.16,1.36 -20.46,4.1 -4.26,2.77 -6.39,8.2 -6.39,16.36l0 0.97c0,5.51 1.2,9.37 3.7,11.58 2.45,2.25 7.03,3.38 13.71,3.38 8.09,0 16.28,-2.26 24.61,-6.72zm116.77 1.89l26.02 -103.66c0.64,-2.77 2.25,-4.14 4.82,-4.14l24.65 0c1.17,0 2.17,0.4 3.05,1.24 0.85,0.81 1.3,1.78 1.3,2.9 0,0.36 -0.09,0.84 -0.25,1.4l-40.29 140.9c-4.63,16.25 -10.58,26.62 -17.86,31.17 -7.23,4.5 -17.73,6.75 -31.36,6.75 -5.35,0 -10.81,-0.44 -16.4,-1.28 -5.55,-0.89 -9.33,-1.74 -11.3,-2.54 -1.98,-0.84 -2.94,-1.97 -2.94,-3.46l0 -15.44c0,-2.93 1.61,-4.38 4.83,-4.38l0.48 0 27.19 1.53c5.42,0 9.64,-1.04 12.61,-3.18 2.98,-2.09 5.76,-8.65 8.37,-19.54l-3.53 0c-5.96,0 -10.54,-1.81 -13.68,-5.43 -3.14,-3.62 -5.59,-8.48 -7.4,-14.6l-31.6 -110.5c-0.12,-0.47 -0.2,-1.04 -0.2,-1.64 0,-2.62 1.52,-3.9 4.58,-3.9l24.37 0c2.37,0 3.9,1.44 4.62,4.38l24.37 98.11c0.8,3.55 1.89,5.31 3.29,5.31l2.26 0zm81.5 -102.73c0,-1.33 0.49,-2.5 1.46,-3.54 1,-1.01 2.12,-1.53 3.37,-1.53l22.15 0c1.33,0 2.46,0.52 3.42,1.53 0.93,1.04 1.41,2.21 1.41,3.54l0 31.8c0,10.62 1.24,17.65 3.82,21.15 2.53,3.5 7.88,5.23 15.96,5.23 8.25,0 17.58,-2.73 28.03,-8.24l0 -49.94c0,-1.33 0.48,-2.5 1.41,-3.54 0.96,-1.01 2.09,-1.53 3.42,-1.53l22.15 0c1.33,0 2.49,0.52 3.42,1.53 0.93,1.04 1.41,2.21 1.41,3.54l0 126.17c0,1.33 -0.48,2.46 -1.41,3.42 -0.93,0.92 -2.09,1.41 -3.42,1.41l-22.15 0c-1.33,0 -2.46,-0.49 -3.42,-1.41 -0.93,-0.96 -1.41,-2.09 -1.41,-3.42l0 -49.94c-9.49,5.95 -21.63,8.93 -36.39,8.93 -28.83,0 -43.23,-17.77 -43.23,-53.36l0 -31.8zm174.6 125.93c0,1.33 -0.48,2.49 -1.41,3.54 -0.96,1 -2.09,1.53 -3.42,1.53l-22.15 0c-1.25,0 -2.37,-0.53 -3.38,-1.53 -0.96,-1.05 -1.45,-2.21 -1.45,-3.54l0 -125.93c0,-1.33 0.49,-2.5 1.45,-3.54 1.01,-1.01 2.13,-1.53 3.38,-1.53l22.15 0c1.33,0 2.46,0.52 3.42,1.53 0.93,1.04 1.41,2.21 1.41,3.54l0 48.77 47.81 0 0 -48.77c0,-1.33 0.48,-2.5 1.4,-3.54 0.97,-1.01 2.09,-1.53 3.42,-1.53l22.16 0c1.33,0 2.49,0.52 3.42,1.53 0.93,1.04 1.4,2.21 1.4,3.54l0 125.93c0,1.33 -0.47,2.49 -1.4,3.54 -0.93,1 -2.09,1.53 -3.42,1.53l-22.16 0c-1.33,0 -2.45,-0.53 -3.42,-1.53 -0.92,-1.05 -1.4,-2.21 -1.4,-3.54l0 -53.36 -47.81 0 0 53.36zm141.57 -89.06l16.42 0c41.37,0 62.08,15.56 62.08,46.64l0 0.97c0,31 -20.71,46.52 -62.08,46.52 -8.33,0 -17.21,-0.37 -26.63,-1.05 -9.44,-0.72 -15.4,-1.56 -17.85,-2.49 -2.49,-0.92 -3.74,-2.41 -3.74,-4.46l0 -123c0,-1.33 0.49,-2.5 1.45,-3.54 0.92,-1.01 2.05,-1.53 3.37,-1.53l22.16 0c1.33,0 2.5,0.52 3.42,1.53 0.96,1.04 1.4,2.21 1.4,3.54l0 36.87zm0 26.05l0 40.86c7.33,0.31 12.79,0.48 16.42,0.48 10.57,0 18.21,-1.53 22.87,-4.59 4.71,-3.05 7.04,-8.12 7.04,-15.19l0 -0.97c0,-7.52 -2.33,-12.91 -6.95,-16.2 -4.63,-3.26 -12.31,-4.87 -22.96,-4.87 -8.89,0 -14.36,0.16 -16.42,0.48zm131.49 63.01c0,1.33 -0.47,2.49 -1.4,3.54 -0.97,1 -2.09,1.53 -3.42,1.53l-22.16 0c-1.32,0 -2.45,-0.53 -3.42,-1.53 -0.91,-1.05 -1.4,-2.21 -1.4,-3.54l0 -126.18c0,-1.33 0.49,-2.45 1.4,-3.42 0.97,-0.92 2.1,-1.4 3.42,-1.4l22.16 0c1.33,0 2.45,0.48 3.42,1.4 0.93,0.97 1.4,2.09 1.4,3.42l0 126.18zm46.29 -182.83l17.66 0c1.6,0 2.61,0.96 3.09,2.81 2.82,10.62 9.25,15.92 19.3,15.92 10.13,0 16.57,-5.3 19.34,-15.92 0.44,-1.85 1.53,-2.81 3.18,-2.81l17.54 0c1.8,0 2.72,0.68 2.72,2.01 0,2.97 -1.36,7.51 -4.02,13.58 -2.65,6.12 -7.35,11.3 -14.07,15.56 -6.71,4.27 -14.96,6.44 -24.69,6.44 -9.73,0 -17.93,-2.17 -24.61,-6.44 -6.67,-4.26 -11.37,-9.44 -14.07,-15.56 -2.74,-6.07 -4.06,-10.61 -4.06,-13.58 0,-1.33 0.88,-2.01 2.69,-2.01zm95.3 183.07c0,1.33 -0.48,2.46 -1.4,3.42 -0.93,0.92 -2.09,1.41 -3.42,1.41l-22.16 0c-1.33,0 -2.45,-0.49 -3.42,-1.41 -0.93,-0.96 -1.4,-2.09 -1.4,-3.42l0 -5.54c-11.86,8 -24.49,12.02 -37.93,12.02 -13.91,0 -24.32,-3.95 -31.28,-11.79 -6.96,-7.84 -10.41,-21.91 -10.41,-42.17l0 -78.69c0,-1.33 0.48,-2.5 1.45,-3.54 1,-1.01 2.13,-1.53 3.37,-1.53l22.16 0c1.33,0 2.45,0.52 3.42,1.53 0.92,1.04 1.4,2.21 1.4,3.54l0 78.69c0,10.29 1.33,17.45 3.98,21.42 2.7,4.03 8.21,6.04 16.61,6.04 6.32,0 15.37,-3.22 27.23,-9.65l0 -96.5c0,-1.33 0.47,-2.5 1.4,-3.54 0.97,-1.01 2.09,-1.53 3.42,-1.53l22.16 0c1.33,0 2.49,0.52 3.42,1.53 0.92,1.04 1.4,2.21 1.4,3.54l0 126.17zm-1783.41 262.58c1.37,0 2.49,0.49 3.42,1.41 0.96,0.96 1.4,2.08 1.4,3.41l0 47.61c0,1.25 -0.44,2.38 -1.4,3.35 -0.93,1 -2.05,1.48 -3.42,1.48l-22.24 0c-1.29,0 -2.37,-0.48 -3.3,-1.48 -0.96,-0.97 -1.44,-2.1 -1.44,-3.35l0 -28.5 -63.01 0c-16.17,0 -26.82,-3.02 -31.93,-9.01 -5.11,-6.03 -7.64,-14.68 -7.64,-25.97l0 -96.03c0,-1.33 0.49,-2.5 1.45,-3.54 1,-1 2.13,-1.52 3.37,-1.52l22.16 0c1.33,0 2.45,0.52 3.42,1.52 0.92,1.04 1.4,2.21 1.4,3.54l0 95.78c0,3.06 0.44,5.31 1.33,6.76 0.93,1.49 3.06,2.21 6.44,2.21l32.28 0c2.9,0 4.91,-0.6 6.08,-1.73 1.12,-1.13 1.69,-3.54 1.69,-7.24l0 -95.78c0,-1.33 0.47,-2.5 1.4,-3.54 0.97,-1 2.09,-1.52 3.42,-1.52l22.16 0c1.33,0 2.49,0.52 3.42,1.52 0.92,1.04 1.4,2.21 1.4,3.54l0 96.03c0,3.29 -0.32,6.99 -0.93,11.05l19.07 0zm135.35 -39.08c0,4.05 -1.61,6.1 -4.83,6.1l-78.57 0 0 0.74c0,8.44 2.21,15.68 6.6,21.66 4.38,5.95 11.82,8.93 22.27,8.93 7.76,0 15.53,-0.28 23.21,-0.8l21.19 -1.65 0.72 0c2.9,0 4.34,1.21 4.34,3.66l0 15.88c0,3.14 -0.76,5.03 -2.32,5.59 -1.58,0.6 -6.68,1.53 -15.29,2.86 -8.6,1.28 -19.99,1.93 -34.22,1.93 -16.73,0 -30.64,-5.19 -41.74,-15.56 -11.14,-10.38 -16.68,-25.38 -16.68,-45.01l0 -17.77c0,-19.1 5.14,-34.1 15.36,-44.95 10.25,-10.9 24.44,-16.32 42.61,-16.32 17.82,0 31.82,5.54 42.03,16.6 10.21,11.1 15.32,25.97 15.32,44.67l0 13.44zm-32.05 -16.61l0 -0.97c0,-9.16 -2.29,-16.44 -6.92,-21.71 -4.66,-5.31 -10.77,-7.97 -18.38,-7.97 -7.79,0 -14.03,2.66 -18.73,7.97 -4.7,5.27 -7.07,12.55 -7.07,21.71l0 0.97 51.1 0zm91.2 74.55c0,1.33 -0.48,2.49 -1.41,3.54 -0.96,1 -2.09,1.53 -3.42,1.53l-22.15 0c-1.25,0 -2.37,-0.53 -3.38,-1.53 -0.96,-1.05 -1.45,-2.21 -1.45,-3.54l0 -125.94c0,-1.33 0.49,-2.5 1.45,-3.54 1.01,-1 2.13,-1.52 3.38,-1.52l22.15 0c1.33,0 2.46,0.52 3.42,1.52 0.93,1.04 1.41,2.21 1.41,3.54l0 48.77 47.81 0 0 -48.77c0,-1.33 0.48,-2.5 1.41,-3.54 0.96,-1 2.08,-1.52 3.41,-1.52l22.16 0c1.33,0 2.49,0.52 3.42,1.52 0.93,1.04 1.4,2.21 1.4,3.54l0 125.94c0,1.33 -0.47,2.49 -1.4,3.54 -0.93,1 -2.09,1.53 -3.42,1.53l-22.16 0c-1.33,0 -2.45,-0.53 -3.41,-1.53 -0.93,-1.05 -1.41,-2.21 -1.41,-3.54l0 -53.36 -47.81 0 0 53.36zm176.6 -104.95l0 104.95c0,1.33 -0.48,2.49 -1.44,3.54 -0.93,1 -2.05,1.53 -3.42,1.53l-22.12 0c-1.37,0 -2.49,-0.53 -3.42,-1.53 -0.96,-1.05 -1.44,-2.21 -1.44,-3.54l0 -104.95 -37.44 0c-1.33,0 -2.5,-0.44 -3.41,-1.32 -0.97,-0.86 -1.42,-1.94 -1.42,-3.3l0 -16.61c0,-1.33 0.49,-2.45 1.45,-3.42 1.01,-0.93 2.13,-1.4 3.38,-1.4l106.72 0c1.24,0 2.38,0.47 3.38,1.4 0.96,0.97 1.44,2.09 1.44,3.42l0 16.61c0,1.36 -0.44,2.44 -1.4,3.3 -0.93,0.88 -2.09,1.32 -3.42,1.32l-37.44 0zm177.85 51.34c0,19.27 -4.82,34.15 -14.51,44.73 -9.73,10.56 -24.13,15.84 -43.18,15.84 -7,0 -14.72,-0.56 -23.21,-1.65l0 42.75c0,1.28 -0.48,2.37 -1.4,3.37 -0.97,0.96 -2.09,1.45 -3.42,1.45l-22.16 0c-1.33,0 -2.49,-0.49 -3.42,-1.45 -0.96,-1 -1.4,-2.09 -1.4,-3.37l0 -167.97c0,-2.29 0.84,-4.02 2.57,-5.15 1.73,-1.12 8.16,-2.69 19.34,-4.66 11.14,-1.93 22.15,-2.93 33.1,-2.93 18.69,0 32.97,5.22 42.86,15.59 9.89,10.42 14.83,25.42 14.83,44.96l0 18.49zm-31.92 0l0 -18.49c0,-12.26 -2.09,-21.07 -6.27,-26.45 -4.23,-5.35 -10.7,-8.05 -19.5,-8.05 -9.58,0 -17.34,0.52 -23.21,1.65l0 84.2c8.33,1.13 16.05,1.65 23.21,1.65 8.8,0 15.27,-2.65 19.5,-8.04 4.18,-5.39 6.27,-14.19 6.27,-26.47zm256.83 53.85c0,1.33 -0.49,2.46 -1.45,3.42 -1,0.92 -2.13,1.41 -3.38,1.41l-23.92 0c-1.33,0 -2.46,-0.49 -3.42,-1.41 -0.93,-0.96 -1.41,-2.09 -1.41,-3.42l0 -73.87 -68.56 0 0 73.87c0,1.33 -0.44,2.46 -1.4,3.42 -0.93,0.92 -2.09,1.41 -3.42,1.41l-23.81 0c-1.33,0 -2.45,-0.49 -3.42,-1.41 -0.93,-0.96 -1.4,-2.09 -1.4,-3.42l0 -169.89c0,-1.24 0.44,-2.33 1.36,-3.22 0.89,-0.92 2.06,-1.37 3.46,-1.37l23.81 0c1.33,0 2.49,0.45 3.42,1.37 0.96,0.89 1.4,1.98 1.4,3.22l0 66.55 68.56 0 0 -66.55c0,-1.24 0.48,-2.33 1.41,-3.22 0.96,-0.92 2.09,-1.37 3.42,-1.37l23.92 0c1.33,0 2.5,0.45 3.41,1.37 0.97,0.89 1.42,1.98 1.42,3.22l0 169.89zm69.36 -126.86l0 126.86c0,1.33 -0.44,2.46 -1.41,3.42 -0.92,0.92 -2.08,1.41 -3.41,1.41l-23.56 0c-1.34,0 -2.46,-0.49 -3.42,-1.41 -0.93,-0.96 -1.41,-2.09 -1.41,-3.42l0 -126.86c0,-16.73 4.18,-29.2 12.54,-37.32 8.37,-8.12 22.77,-12.18 43.19,-12.18 11.3,0 22.16,0.56 32.57,1.65 10.42,1.08 16,2.09 16.85,2.93 0.8,0.89 1.24,2.17 1.24,3.9l0 15.45c0,1.32 -0.47,2.45 -1.4,3.41 -0.97,0.92 -2.09,1.41 -3.42,1.41l-49.26 0c-7.31,0 -12.3,1.53 -15.03,4.58 -2.7,3.05 -4.07,8.44 -4.07,16.17zm158.92 60.07l26.05 -103.78c0.65,-2.77 2.26,-4.14 4.84,-4.14l24.6 0c3.01,0 4.5,1.24 4.5,3.77 0,0.57 -0.12,1.13 -0.35,1.77l-39.58 138.05c-4.66,16.28 -10.61,26.65 -17.85,31.12 -7.28,4.46 -17.73,6.72 -31.4,6.72 -5.28,0 -10.7,-0.4 -16.25,-1.25 -5.59,-0.8 -9.36,-1.65 -11.38,-2.54 -2.01,-0.84 -3.01,-2 -3.01,-3.42l0 -15.43c0,-2.9 1.52,-4.34 4.58,-4.34l28.06 1.4c5.44,0 9.58,-1.05 12.43,-3.13 2.85,-2.06 5.47,-7.6 7.85,-16.65l-3.67 0c-5.98,0 -10.53,-1.77 -13.67,-5.35 -3.13,-3.58 -5.59,-8.49 -7.31,-14.68l-31.57 -110.5c-0.25,-0.64 -0.37,-1.24 -0.37,-1.89 0,-2.44 1.54,-3.65 4.63,-3.65l24.37 0c2.37,0 3.9,1.44 4.59,4.38l24.4 98.24c0.52,2.12 1.05,3.53 1.53,4.21 0.48,0.73 1.33,1.09 2.57,1.09l1.41 0z"/>
   </g>
   <path class="fil1" d="M2749.8 66.92l0 49.97 -99.92 0c-158.22,0 -198.19,82.43 -198.19,236.48 0,154.05 39.97,238.16 198.19,238.16l99.92 0 0 58.29 149.89 0 0 -58.29 99.92 0c158.22,0 198.19,-84.11 198.19,-238.16 0,-154.05 -39.97,-236.48 -198.19,-236.48l-99.92 0 0 -49.97 -149.89 0zm0 408.03l-45.8 0c-83.27,0 -99.09,-37.47 -99.09,-120.74 0,-83.27 15.82,-120.74 99.09,-120.74l45.8 0 0 241.48zm149.89 0l0 -241.48 45.8 0c83.26,0 99.09,37.47 99.09,120.74 0,83.27 -15.83,120.74 -99.09,120.74l-45.8 0zm974.26 -227.33c4.17,-11.66 8.33,-19.98 12.49,-19.98 5,0 9.16,6.65 9.16,18.32l-4.99 403.86 149.89 0 0 -499.62c0,-44.97 -23.32,-89.94 -119.08,-89.94 -57.46,0 -102.43,20.82 -125.74,85.77l-122.41 336.41c-3.33,10 -9.99,24.15 -16.65,24.15 -6.67,0 -13.33,-14.15 -16.66,-24.15l-122.41 -336.41c-23.31,-64.95 -68.28,-85.77 -126.57,-85.77 -44.13,0 -118.24,11.66 -118.24,89.94l0 499.62 149.89 0 -4.17 -403.86c0,-4.17 0,-18.32 8.33,-18.32 4.99,0 9.16,10.82 12.49,19.98l119.08 334.75c15.82,44.13 31.64,74.11 98.26,74.11 65.78,0 81.6,-29.98 97.42,-74.11l119.91 -334.75zm924.3 -180.7l0 427.18c0,29.15 -9.98,39.14 -39.13,39.14l-144.06 0 0 -466.32 -149.88 0 0 466.32 -144.06 0c-29.15,0 -39.14,-9.99 -39.14,-39.14l0 -427.18 -149.89 0 0 493.8c0,62.45 34.14,89.1 88.27,89.1l639.52 0c54.12,0 88.27,-26.65 88.27,-89.1l0 -493.8 -149.9 0z"/>
   <path class="fil2" d="M1619.18 1384.02c0,-40.67 32.98,-73.65 73.65,-73.65 40.68,0 73.65,32.98 73.65,73.65l0 144.2c0,40.67 -32.97,73.65 -73.65,73.65l-1027.11 0c-40.68,0 -73.66,-32.98 -73.66,-73.65 0,-18.41 6.76,-35.24 17.92,-48.15l457.91 -633.61 -333.03 -471.84c-23.35,-33.2 -15.36,-79.05 17.84,-102.41 33.2,-23.35 79.05,-15.36 102.41,17.84l363.16 514.52 -0.1 0.06c17.48,24.85 18.28,59.05 -0.47,85.09l-408.22 564.84 809.7 0 0 -70.54z"/>
   <path class="fil2" d="M1766.48 285.05c0,40.68 -32.97,73.66 -73.65,73.66 -40.67,0 -73.65,-32.98 -73.65,-73.66l0 -70.54 -1077.91 0 429.22 586.72c19.7,26.89 18.44,62.72 -0.78,87.96l-498.78 682.46c-23.99,32.73 -69.98,39.81 -102.7,15.83 -32.73,-23.99 -39.81,-69.98 -15.83,-102.7l467.8 -640.09 -480.19 -656.39c-10.8,-12.81 -17.31,-29.37 -17.31,-47.44 0,-40.67 32.97,-73.65 73.65,-73.65l1296.48 0c40.68,0 73.65,32.98 73.65,73.65l0 144.19z"/>
   <path class="fil3" d="M1012.4 1203.45c-314.18,-297.85 -735.03,-368.64 -914.24,-389.55 -90.73,-10.58 -83.53,3.8 -83.53,74.58l0 0c0,78.72 -3.35,86.94 79.89,98.08 231.05,30.94 530.56,106.1 767.97,315.08 59.27,52.17 59.25,58.74 117.63,58.74 42.98,0 85.95,0 128.93,0 58.38,0 58.36,-6.57 117.63,-58.74 237.41,-208.98 536.92,-284.14 767.96,-315.08 83.25,-11.14 79.9,-19.36 79.9,-98.08l0 0c0,-70.78 7.21,-85.16 -83.54,-74.58 -179.24,20.92 -600.33,91.79 -914.54,389.82 -27.26,25.85 -36.71,25.65 -64.06,-0.27z"/>
  </g>
 </g>
</svg>
