<?xml version="1.0" encoding="UTF-8"?><svg id="_Слой_1_копия_" xmlns="http://www.w3.org/2000/svg" viewBox="0 0 519.6 83"><path d="M89.1,80c-.5,0-.9-.4-.9-.9V6.9c0-.5.4-.9.9-.9s.9.4.9.9v72.2c0,.5-.4.9-.9.9Z" style="fill:#a03123; stroke-width:0px;"/><path d="M121,38.7c0,3-.8,5.4-2.3,7s-3.6,2.5-6.4,2.5-5-.8-6.5-2.5-2.3-4-2.3-7.1.8-5.4,2.3-7.1,3.7-2.5,6.5-2.5,4.9.8,6.4,2.5c1.5,1.7,2.3,4.2,2.3,7.2ZM106.9,38.7c0,2.3.5,4,1.4,5.2s2.3,1.8,4.1,1.8,3.2-.6,4.1-1.8,1.4-2.9,1.4-5.2-.5-4-1.4-5.2-2.3-1.8-4.1-1.8-3.2.6-4.1,1.8-1.4,3-1.4,5.2Z" style="fill:#a03123; stroke-width:0px;"/><path d="M136.2,48h-3v-11.7h-3.9c-.2,3-.6,5.4-1,7.1-.4,1.7-.9,2.9-1.6,3.7s-1.5,1.2-2.5,1.2c-.7,0-1.2-.1-1.6-.3v-2.3c.3.1.6.2.9.2.9,0,1.5-1,2-2.9s.9-4.9,1.2-8.9h9.4v13.9h.1Z" style="fill:#a03123; stroke-width:0px;"/><path d="M143.4,34v7.2c0,.8-.1,2.1-.2,3.7l7-10.9h3.6v14h-2.8v-7c0-.4,0-1,.1-1.9s.1-1.5.1-1.9l-7,10.9h-3.6v-14.1h2.8Z" style="fill:#a03123; stroke-width:0px;"/><path d="M166.2,45.2l.2-.6c.3-1.3.6-2.2.9-2.9l3.1-7.7h4v14h-2.8v-11.3l-.2.8c-.4,1.4-.7,2.4-1,3l-3.1,7.6h-2.3l-3.1-7.6c-.4-1.1-.8-2.3-1.2-3.7v11.2h-2.7v-14h3.9l3,7.4c.5.7.8,2,1.3,3.8Z" style="fill:#a03123; stroke-width:0px;"/><path d="M190.9,34v14h-3v-11.6h-6.3v11.6h-3v-14h12.3Z" style="fill:#a03123; stroke-width:0px;"/><path d="M198,34v7.2c0,.8-.1,2.1-.2,3.7l7-10.9h3.6v14h-2.9v-7c0-.4,0-1,.1-1.9s.1-1.5.1-1.9l-7,10.9h-3.6v-14.1h2.9Z" style="fill:#a03123; stroke-width:0px;"/><path d="M221.5,48l-.6-2h-.1c-.7.9-1.4,1.4-2,1.7-.7.3-1.6.5-2.6.5-1.4,0-2.5-.4-3.2-1.1s-1.2-1.8-1.2-3.2.5-2.5,1.6-3.3,2.7-1.1,4.9-1.2l2.4-.1v-.7c0-.9-.2-1.6-.6-2s-1.1-.6-2-.6c-.7,0-1.4.1-2.1.3s-1.3.5-1.9.7l-1-2.1c.8-.4,1.6-.7,2.5-.9s1.8-.3,2.6-.3c1.8,0,3.1.4,4,1.2s1.4,2,1.4,3.7v9.4h-2.1ZM217.1,46c1.1,0,2-.3,2.6-.9.7-.6,1-1.5,1-2.5v-1.2l-1.8.1c-1.4.1-2.4.3-3.1.7s-1,1.1-1,1.9c0,.6.2,1.1.6,1.5.4.2,1,.4,1.7.4Z" style="fill:#a03123; stroke-width:0px;"/><path d="M241.3,53h-2.8v-5h-9.6v5h-2.8v-7.3h1.1c1-1.4,1.8-3.2,2.4-5.2s.9-4.2,1-6.5h8.5v11.7h2.1v7.3h.1ZM236.3,45.7v-9.4h-3c-.2,1.7-.5,3.5-1,5.2s-1.1,3.1-1.9,4.3h5.9v-.1Z" style="fill:#a03123; stroke-width:0px;"/><path d="M252.7,48l-.6-2h-.1c-.7.9-1.4,1.4-2,1.7-.7.3-1.6.5-2.6.5-1.4,0-2.5-.4-3.2-1.1s-1.2-1.8-1.2-3.2.5-2.5,1.6-3.3,2.7-1.1,4.9-1.2l2.4-.1v-.7c0-.9-.2-1.6-.6-2-.4-.4-1.1-.7-1.9-.7-.7,0-1.4.1-2.1.3s-1.3.5-1.9.7l-1-2.1c.8-.4,1.6-.7,2.5-.9s1.8-.3,2.6-.3c1.8,0,3.1.4,4,1.2s1.4,2,1.4,3.7v9.5h-2.2ZM248.3,46c1.1,0,2-.3,2.6-.9.7-.6,1-1.5,1-2.5v-1.2l-1.8.1c-1.4.1-2.4.3-3.1.7s-1,1.1-1,1.9c0,.6.2,1.1.6,1.5.4.2.9.4,1.7.4Z" style="fill:#a03123; stroke-width:0px;"/><path d="M285.6,48h-19.9v-14h3v11.7h5.5v-11.7h3v11.7h5.5v-11.7h3v14h-.1Z" style="fill:#a03123; stroke-width:0px;"/><path d="M298.6,34h3.3l-5.8,6.8,6.3,7.3h-3.4l-6.1-7.1v7h-3v-14h3v6.8l5.7-6.8Z" style="fill:#a03123; stroke-width:0px;"/><path d="M317.2,41c0,2.3-.6,4.1-1.8,5.4s-2.8,1.9-4.9,1.9c-1.3,0-2.5-.3-3.5-.9s-1.8-1.4-2.3-2.6c-.5-1.1-.8-2.4-.8-3.9,0-2.3.6-4.1,1.8-5.3s2.8-1.9,4.9-1.9,3.6.7,4.8,2,1.8,3.1,1.8,5.3ZM306.9,41c0,3.2,1.2,4.9,3.6,4.9s3.6-1.6,3.6-4.9-1.2-4.8-3.6-4.8c-1.3,0-2.2.4-2.7,1.2-.6.9-.9,2-.9,3.6Z" style="fill:#a03123; stroke-width:0px;"/><path d="M332.1,48h-3v-11.7h-3.9c-.2,3-.6,5.4-1,7.1-.4,1.7-.9,2.9-1.6,3.7-.6.8-1.5,1.2-2.5,1.2-.7,0-1.2-.1-1.6-.3v-2.3c.3.1.6.2.9.2.9,0,1.5-1,2-2.9s.9-4.9,1.2-8.9h9.4v13.9h.1Z" style="fill:#a03123; stroke-width:0px;"/><path d="M339.4,39.6h3.5c3.9,0,5.9,1.4,5.9,4.1,0,1.4-.5,2.5-1.5,3.3-1,.7-2.5,1.1-4.4,1.1h-6.5v-14.1h3v5.6ZM345.8,43.8c0-.7-.3-1.2-.8-1.5s-1.3-.4-2.3-.4h-3.3v4h3.4c1,0,1.7-.2,2.2-.5.5-.5.8-1,.8-1.6Z" style="fill:#a03123; stroke-width:0px;"/><path d="M355.1,34v5.6h6.6v-5.6h3v14h-3v-6h-6.6v6h-3v-14h3Z" style="fill:#a03123; stroke-width:0px;"/><path d="M371.8,34v7.2c0,.8-.1,2.1-.2,3.7l7-10.9h3.6v14h-2.9v-7c0-.4,0-1,.1-1.9,0-.9.1-1.5.1-1.9l-7,10.9h-3.6v-14.1h2.9Z" style="fill:#a03123; stroke-width:0px;"/><path d="M395.2,34h3.3l-5.8,6.8,6.3,7.2h-3.4l-6.1-7.1v7.1h-3v-14h3v6.8l5.7-6.8Z" style="fill:#a03123; stroke-width:0px;"/><path d="M413.8,41c0,2.3-.6,4.1-1.8,5.4s-2.8,1.9-4.9,1.9c-1.3,0-2.5-.3-3.5-.9s-1.8-1.4-2.3-2.6c-.5-1.1-.8-2.4-.8-3.9,0-2.3.6-4.1,1.8-5.3s2.8-1.9,4.9-1.9,3.6.7,4.8,2,1.8,3.1,1.8,5.3ZM403.5,41c0,3.2,1.2,4.9,3.6,4.9s3.6-1.6,3.6-4.9-1.2-4.8-3.6-4.8c-1.3,0-2.2.4-2.7,1.2-.6.9-.9,2-.9,3.6Z" style="fill:#a03123; stroke-width:0px;"/><path d="M429.4,37.6c0,1.7-1,2.7-2.9,3v.1c1.1.1,1.9.5,2.5,1s.9,1.3.9,2.2c0,1.3-.5,2.4-1.5,3.1-1,.7-2.5,1.1-4.4,1.1h-6.7v-14.1h6.7c3.5,0,5.4,1.2,5.4,3.6ZM426.4,37.8c0-.6-.2-1-.7-1.2-.4-.2-1.1-.4-1.9-.4h-3.6v3.4h3.2c1,0,1.8-.1,2.3-.4s.7-.7.7-1.4ZM426.8,43.7c0-.7-.3-1.2-.8-1.4s-1.3-.4-2.4-.4h-3.4v4h3.5c2-.1,3.1-.8,3.1-2.2Z" style="fill:#a03123; stroke-width:0px;"/><path d="M447.9,31.8c-1.7,0-3.1.6-4.1,1.9s-1.5,2.9-1.5,5.1.5,4,1.4,5.2c1,1.2,2.4,1.8,4.2,1.8.8,0,1.5-.1,2.3-.2.7-.2,1.5-.4,2.3-.6v2.6c-1.5.5-3.1.8-5,.8-2.7,0-4.8-.8-6.3-2.5-1.5-1.6-2.2-4-2.2-7.1,0-1.9.4-3.6,1.1-5.1.7-1.4,1.7-2.6,3.1-3.3s2.9-1.2,4.7-1.2c1.9,0,3.6.4,5.3,1.2l-1.1,2.5c-.6-.3-1.3-.6-2-.8-.7-.2-1.5-.3-2.2-.3Z" style="fill:#a03123; stroke-width:0px;"/><path d="M470.7,48h-3v-16h-8.2v16h-3v-18.5h14.3v18.5h-.1Z" style="fill:#a03123; stroke-width:0px;"/><path d="M474.5,39.6c0-3.1.5-5.5,1.6-7.2s2.8-2.8,5.1-3.2c1.8-.4,3.8-.7,6.1-1l.4,2.6c-2.8.4-4.8.8-6.1,1-1.3.2-2.3.8-2.9,1.6s-.9,2.1-1,3.8h.2c.5-.7,1.1-1.2,1.9-1.6s1.6-.6,2.5-.6c1.7,0,3.1.5,4,1.6s1.4,2.6,1.4,4.6c0,2.3-.6,4-1.8,5.2-1.2,1.2-2.8,1.9-4.9,1.9s-3.7-.8-4.8-2.3-1.7-3.6-1.7-6.4ZM481.3,45.9c2.2,0,3.3-1.5,3.3-4.4s-1-4.2-3-4.2c-.5,0-1.1.1-1.6.4s-1,.6-1.4.9c-.4.4-.8.8-1,1.2,0,2,.3,3.5,1,4.5.5,1,1.4,1.6,2.7,1.6Z" style="fill:#a03123; stroke-width:0px;"/><path d="M502.4,29.5v2.6h-8v16h-3v-18.6h11Z" style="fill:#a03123; stroke-width:0px;"/><path d="M519.6,29.5l-5.9,13.2c-.7,1.6-1.4,2.8-2,3.5-.6.7-1.3,1.3-2.1,1.6-.8.3-1.8.5-2.9.5-1,0-1.9-.1-2.7-.4v-2.7c.8.3,1.7.5,2.6.5.8,0,1.4-.2,1.9-.6.5-.4,1-1.1,1.4-2l-6.8-13.6h3.3l4.5,9.3c.4.9.7,1.5.7,1.8h.1c.1-.2.2-.6.4-1.1l4.2-10h3.3Z" style="fill:#a03123; stroke-width:0px;"/><path d="M33.42,13.72c.02.06.05.11.07.16.43.91,1.21,1.79,1.21,1.79,0,0,0,0,.01-.01h0s.11-.08.34-.21c.08-.04.17-.09.27-.14.25-.12.57-.27.97-.41.94-.33,2.2-.44,2.2-.44,0,0-1.17-1.63-1.39-3.98-.12-1.33-.07-2.03-.06-2.07-.08,0-.16-.01-.24-.01-.89,0-1.7.31-2.35.83-.02.01-.03.02-.05.04-.83.69-1.35,1.72-1.35,2.88,0,.32.05.63.12.93.06.19.14.44.23.64Z" style="fill:#5f676f; stroke-width:0px;"/><path d="M55.97,25.14c.38.61.36,1.37.36,1.37,0,0,.77.13,1.15.51,0,0,.06-.06.07-.07.52-.64,1.48-1.69,1.75-3.21.22-1.24.08-2.97-.18-3.53,0-.02-.02-.05-.03-.07.25-.29.66-.95,1.79-.95.42,0,.79.11,1.09.26.5.24.8.56.8.56,0,0-.98,1.74-1.49,2.57-.26.42-.45.75-.98,1.91-.44.97-.56,1.61-.48,2.3.06.58.37,1.69.51,2.81.26,2.14-.17,3.19-.17,3.19,0,0,.01,0,.03-.02,0,0,0,.03,0,.03,0,0,2.54-1.68,4.15-5.42,0,0-.01,0-.02,0,0,0,0,0,0,0-.3-.05-.54-.14-.75-.24-.21-.11-.4-.24-.6-.39-1.42-1.09-1.1-2.24-.64-2.79.13-.15.27-.3.41-.46.36-.38.74-.77,1.15-1.24.51-.6.7-1.2.76-1.72.02-.18.05-.36.05-.55,0-1.58-.76-2.65-1.74-3.19-.32-.18-.67-.3-1.02-.36-1.09-.19-2.42.22-3.4.88-.37.25-.98.81-1.15,1.24-.21,1.06.1,1.33.43,2.43,0,.02.02.04.03.06.67,2.44.32,3.62-1.88,4.09Z" style="fill:#5f676f; stroke-width:0px;"/><path d="M45.07,22.95c.29.61.81,1.2.81,1.2,0,0,0,0,0,0,0,0,.08.08.08.08,0,0,.29-.25,1.04-.55.62-.24,1.42-.33,1.42-.33,0,0-.78-1.09-.93-2.66-.09-.91-.05-1.38-.04-1.39,0,0-.01,0-.02,0h0c-.4-.07-.81,0-1.19.18-.26.15-.49.31-.69.48-.34.3-.56.64-.65,1-.14.38-.19.81-.11,1.25,0,.04.14.49.26.75Z" style="fill:#5f676f; stroke-width:0px;"/><path d="M48.54,21.34c.34.94.9,1.74,1.33,1.9.07.03.13.04.19.04h0c.45-.05,1.04-.96,1.33-2.06.27-1.03.09-1.9-.37-2.27-.1-.08-.22-.14-.34-.2-.02,0-.04-.01-.06-.02.23-.2.38-.49.38-.81,0-.5-.33-.91-.78-1.04v-.44h.75v-.61h-.75v-.96h-.61v.96h-.75v.61h.75v.44c-.45.13-.78.54-.78,1.04,0,.32.14.6.36.81-.18.08-.35.19-.49.31-.42.4-.53,1.28-.17,2.29Z" style="fill:#5f676f; stroke-width:0px;"/><path d="M51.6,23.27s1.34,0,2.67.53c.02,0,.04.02.06.03.18-.23.44-.59.61-.96.12-.25.26-.71.26-.75.08-.44.03-.86-.11-1.25-.09-.36-.31-.7-.65-1-.19-.17-.43-.33-.69-.48,0,0,0,0,0,0,0,0,0,0,0,0-.38-.18-.79-.26-1.19-.19,0,0,.05.48-.04,1.39-.15,1.57-.93,2.66-.93,2.66,0,0,.01,0,.02,0h0Z" style="fill:#5f676f; stroke-width:0px;"/><path d="M42.9,14.47s1.26.1,2.2.44c.4.14.72.28.97.41.1.05.19.1.27.14.23.13.34.21.34.21h0s.01,0,.01,0c0,0,.78-.88,1.21-1.79.02-.05.05-.11.07-.16.09-.21.17-.45.23-.64.08-.3.12-.61.12-.93,0-1.16-.53-2.19-1.35-2.88-.02-.01-.03-.02-.05-.04-.64-.52-1.46-.83-2.35-.83-.08,0-.16,0-.24.01.01.04.07.74-.06,2.07-.22,2.35-1.39,3.98-1.39,3.98Z" style="fill:#5f676f; stroke-width:0px;"/><path d="M43.73,18.08s.15.73.23,1.06c0,0,.09,0,.09,0,.56-.22,1.65-.55,1.65-.92v-1.17c0-.21-.21-.41-.59-.59-.77-.36-2.22-.61-3.87-.64h-.96c-1.7.02-3.22.27-4.02.64-.38.17-.6.37-.6.59v1.17c0,.37,1.11.69,1.67.92,0,0,.09,0,.09,0,.09-.33.24-1.06.24-1.06,0,0-.12-.05-.14-.1-.07-.15.06-.23.26-.35.21-.11.55-.18.84-.19.18.64.2,1.65.16,2.52-.08,1.74-.4,3.92-1.43,5.4.39.38.82.87,1.27,1.5,1.07-2.05,1.24-4.29,1.32-6.59.04-1.02,0-2.2,0-3.02.1,0,.43-.04.76-.04s.65.04.75.04c0,.81-.04,2,0,3.02.09,2.35.26,4.63,1.38,6.7.41-.59.8-1.07,1.17-1.45.03-.04.05-.07.08-.11-1.06-1.48-1.39-3.7-1.47-5.46-.04-.87-.01-1.87.16-2.52.29.01.63.08.83.19.21.12.33.2.26.35-.02.05-.14.1-.14.1Z" style="fill:#5f676f; stroke-width:0px;"/><path d="M58.12,34.48s0,0-.02,0c-.02,0-.03,0-.05,0h-.03c-.06,0-.12.01-.18.02-.61.04-1.2,0-1.69-.2-.28-.09-.52-.25-.75-.41-.05-.04-.68-.59-.79-.7-.45-.42-1.3-1.04-2.18-1.12-.99-.1-1.62.26-2.33.54-.07.03-.12.09-.12.17,0,.08.04.16.12.19.02.01.05.02.08.03.7.05,1.37.17,2.01.36.47.14.94.29,1.31.56.49.35.91.79,1.19.96.36.23.68.45,1.1.54.44.07.89.04,1.32-.07.02,0,.04-.01.06-.02.11-.03.22-.07.33-.11.15-.06.29-.13.43-.2,0,0,.01,0,.02,0,.09-.05.18-.09.26-.15,0,0,0,0,0,0,.05-.04.08-.1.07-.17,0-.09-.08-.15-.16-.17,0,0,0,0,0,0Z" style="fill:#5f676f; stroke-width:0px;"/><path d="M55.4,27.94c.04.14.19.29.36.39.53.31.72.76-.07.85-.58.07-1.18-.32-3.31.27-1.25.34-2.73,1.61-3.24,2.19-.16.18-.32.39-.47.61-.5.71-.49,1.68.05,2.36.32.41.67.67.78.74,1.87,1.27,3.63.22,3.82.03.15-.15.16-.21.13-.25,0,0,0,0-.01,0,0,0,0,0,0,0,0,0,0,0,0,0,0,0-.6.31-1.43.31-.47,0-.95-.08-1.35-.26-.29-.13-.97-.5-1.37-1.14-.26-.41-.2-.95.11-1.33.31-.38.7-.73,1.05-1,.8-.59,1.73-.95,2.8-.96.03,0,.05,0,.08,0,.54,0,1.05.09,1.54.25.25.08.48.18.71.29.69.35,1.28.86,1.74,1.47,0,0,0,0,0,0,0,0,0,0,.01.01.18-.3.37-.74.54-1.37.03-.11.06-.22.09-.34.24-1.05.17-3.49-2.15-3.49-.04,0-.09.02-.13.03-.25.07-.31.2-.26.34Z" style="fill:#5f676f; stroke-width:0px;"/><path d="M17.31,22.26c.41.47.79.86,1.15,1.24.14.15.28.3.41.46.46.54.78,1.7-.64,2.79-.2.15-.39.28-.6.39-.21.11-.45.19-.75.24,0,0,0,0,0,0,0,0-.01,0-.02,0,1.61,3.75,4.15,5.42,4.15,5.42,0,0,0-.02,0-.03.01.01.03.02.03.02,0,0-.42-1.05-.17-3.19.13-1.12.44-2.23.51-2.81.08-.69-.04-1.33-.48-2.3-.53-1.16-.72-1.49-.98-1.91-.51-.83-1.49-2.57-1.49-2.57,0,0,.31-.32.8-.56.3-.14.67-.26,1.09-.26,1.13,0,1.54.67,1.79.95,0,.02-.02.05-.03.07-.26.55-.41,2.29-.18,3.53.28,1.52,1.23,2.57,1.75,3.21,0,.01.07.07.07.07.38-.38,1.15-.51,1.15-.51,0,0-.02-.76.36-1.37-2.2-.46-2.55-1.65-1.88-4.09,0-.02.02-.04.03-.06.32-1.1.64-1.37.43-2.43-.17-.42-.78-.98-1.15-1.24-.97-.66-2.31-1.07-3.4-.88-.35.06-.7.18-1.02.36-.97.54-1.74,1.61-1.74,3.19,0,.19.03.37.05.55.07.53.25,1.13.76,1.72Z" style="fill:#5f676f; stroke-width:0px;"/><path d="M32.78,23.35s.8.09,1.42.33c.76.29,1.04.55,1.04.55,0,0,.07-.07.08-.08,0,0,0,0,0,0,0,0,.52-.59.81-1.2.12-.25.26-.71.26-.75.08-.44.03-.86-.11-1.25-.09-.36-.31-.7-.65-1-.19-.17-.43-.33-.69-.48-.38-.18-.79-.26-1.19-.19h0s-.01,0-.02,0c0,0,.05.48-.04,1.39-.15,1.57-.93,2.66-.93,2.66Z" style="fill:#5f676f; stroke-width:0px;"/><path d="M31.14,23.29h0c.06,0,.12-.02.19-.04.43-.17.99-.96,1.33-1.9.36-1.01.26-1.89-.17-2.29-.15-.13-.32-.23-.51-.31.23-.2.38-.49.38-.81,0-.5-.33-.91-.78-1.04v-.44h.75v-.61h-.75v-.96h-.61v.96h-.75v.61h.75v.44c-.45.13-.78.54-.78,1.04,0,.32.14.61.37.81-.02,0-.04.01-.06.02-.12.05-.23.12-.34.2-.45.37-.64,1.23-.37,2.27.29,1.11.88,2.01,1.33,2.06Z" style="fill:#5f676f; stroke-width:0px;"/><path d="M26.26,22.88c.17.37.43.73.61.96.02-.01.04-.02.06-.03,1.33-.52,2.67-.53,2.67-.53h0s.02,0,.02,0c0,0-.78-1.09-.93-2.66-.09-.91-.05-1.38-.04-1.39-.4-.07-.81.01-1.19.19,0,0,0,0,0,0,0,0,0,0,0,0-.26.15-.49.31-.69.48-.34.3-.56.64-.65,1-.14.38-.19.81-.11,1.25,0,.04.14.49.26.75Z" style="fill:#5f676f; stroke-width:0px;"/><path d="M31.02,32.98s.06-.01.08-.03c.07-.03.12-.1.12-.19,0-.08-.06-.14-.12-.17-.71-.28-1.34-.64-2.33-.54-.88.09-1.73.7-2.18,1.12-.11.1-.73.65-.79.7-.23.16-.47.32-.75.41-.49.19-1.08.24-1.69.2-.06,0-.11-.01-.18-.02h-.03s-.03,0-.05,0c0,0,0,0-.02,0,0,0,0,0,0,0-.08.01-.15.08-.16.17,0,.07.02.13.07.17,0,0,0,0,0,0,.08.06.17.1.26.15,0,0,.01,0,.02,0,.13.08.28.15.43.2.11.04.22.08.33.11.02,0,.04.01.06.02.43.11.88.14,1.32.07.42-.08.74-.31,1.1-.54.28-.18.7-.62,1.19-.96.37-.26.84-.41,1.31-.56.64-.19,1.3-.31,2.01-.36Z" style="fill:#5f676f; stroke-width:0px;"/><path d="M23.27,31.05c.03.12.06.23.09.34.17.63.36,1.07.54,1.37,0,0,0,0,.01-.01,0,0,0,0,0,0,.45-.62,1.05-1.12,1.74-1.47.23-.12.46-.21.71-.29.49-.16,1-.25,1.54-.25.03,0,.05,0,.08,0,1.07.02,1.99.37,2.8.96.36.26.74.62,1.05,1,.31.38.37.91.11,1.33-.4.64-1.08,1-1.37,1.14-.4.18-.88.26-1.35.26-.83,0-1.42-.32-1.43-.31,0,0,0,0,0,0,0,0,0,0,0,0,0,0,0,0-.01,0-.03.04-.02.1.13.25.19.19,1.95,1.24,3.82-.03.1-.07.46-.34.78-.74.54-.69.54-1.65.05-2.36-.15-.22-.32-.43-.47-.61-.51-.58-1.99-1.85-3.24-2.19-2.13-.59-2.74-.2-3.31-.27-.79-.09-.6-.54-.07-.85.17-.1.32-.25.36-.39.04-.14-.01-.27-.26-.34-.04,0-.09-.03-.13-.03-2.32,0-2.39,2.44-2.15,3.49Z" style="fill:#5f676f; stroke-width:0px;"/><path d="M51.46,66.8v.03s.01,0,.02,0c0,0-.01-.02-.02-.03Z" style="fill:#5f676f; stroke-width:0px;"/><path d="M41.92,43.18c.08.15.38.4.45.87,0,.05,1.17-1.23,1.17-1.23v-1.23l-1.24.52-.38,1.07Z" style="fill:#5f676f; stroke-width:0px;"/><path d="M34.35,75.51c.56-.15,1.07-.32,1.62-.53.27-.1.54-.22.8-.36.27-.14.54-.29.8-.48.26-.18.49-.41.7-.66.1-.13.19-.27.26-.42.03-.08.07-.16.1-.23l.05-.2h0c.04-.15-.05-.3-.2-.34-.06-.01-.11,0-.16.01-.05.02-.09.04-.13.08-.17.2-.35.34-.55.44-.19.1-.4.18-.62.25-.45.13-.95.2-1.46.27-.5.06-1.05.12-1.55.17-.5.05-1.01.07-1.53.09l-1.6.05c-.56.03-1.14.06-1.8.21-.25.06-.53.14-.8.27-.09.04-.19.09-.28.15-.36.23-.73.6-.91,1.03-.19.43-.21.85-.14,1.21.08.36.23.68.49.95.1.11.26.13.39.08.04-.02.16-.11.16-.11.46-.75,1.45-1.15,1.64-1.19.8-.19,1.94-.24,3.04-.4.56-.08,1.12-.19,1.68-.33Z" style="fill:#5f676f; stroke-width:0px;"/><path d="M29.32,72.43c-.01.15.1.27.25.29.06,0,.12-.01.17-.05h0s0,0,0,0l.09-.06c.13-.09.26-.16.38-.22.39-.18.79-.24,1.18-.25.54-.02,1.09.05,1.72.16.68.12,1.45.18,2.19.12.38-.03.76-.1,1.14-.21.19-.06.39-.13.59-.23,0,0,0,0,0,0,0,0,0,0,.01,0,.18-.1.44-.24.57-.52.05-.11,0-.24-.11-.29-.02,0-.03-.01-.05-.02,0,0-.75-.14-1.06-.23l-.96-.25c-.66-.16-1.28-.3-1.99-.42-.75-.13-1.64-.12-2.47.2-.1.04-.21.09-.31.14-.71.36-1.31,1.02-1.37,1.85Z" style="fill:#5f676f; stroke-width:0px;"/><path d="M30.4,69.77s.47-.17.68-.24c0,0,0,0,0,0,0,0-2.59-.94-1.12-2.62v-.06s0-.01,0,0c-.25-.03-.5-.01-.73.09-.23.09-.44.25-.6.45-.71.88.26,1.83.29,1.84-.14-.01-.49-.06-.64-.08-.63-.43-1.67-1.49-.18-3.73-.04,0-.08,0-.11,0-.22-.01-.43.03-.63.12-.12.04-.23.08-.33.14-.74.36-1.24,1.05-1.24,1.86,0,.33.09.64.24.92.11.2.25.38.42.54-.11,0-.59-.04-.7-.07-.68-.79-1.44-2.26.02-3.98-.04,0-.08,0-.11,0-.22-.01-.43.03-.63.12-.13.05-.25.11-.37.17-.81.46-1.2,1.34-1.2,2.07,0,.33.12.87.24,1.16.96,2.35,5.49,1.63,6.71,1.33Z" style="fill:#5f676f; stroke-width:0px;"/><path d="M53.43,74.29c-.09-.06-.19-.11-.28-.15-.28-.13-.55-.21-.8-.27-.67-.15-1.25-.18-1.8-.21l-1.6-.05c-.52-.02-1.03-.04-1.53-.09-.5-.05-1.05-.11-1.55-.17-.51-.07-1.01-.13-1.46-.27-.22-.07-.43-.14-.62-.25-.2-.11-.38-.24-.55-.44-.03-.04-.08-.07-.13-.08-.05-.02-.11-.03-.16-.01-.15.04-.24.19-.2.33h0s.05.21.05.21c.03.07.06.15.1.23.07.15.16.29.26.42.2.26.44.48.7.66.26.18.53.34.8.48.27.14.54.25.8.36.54.21,1.05.38,1.62.53.56.15,1.13.25,1.68.33,1.1.16,2.24.21,3.04.4.19.05,1.18.45,1.64,1.19,0,0,.11.1.16.11.13.06.29.03.39-.08.26-.27.41-.58.49-.95.07-.36.05-.79-.14-1.21-.18-.43-.54-.8-.91-1.03Z" style="fill:#5f676f; stroke-width:0px;"/><path d="M44.35,71.96s0,0,.01,0c0,0,0,0,0,0,.2.11.4.17.59.24.39.1.77.18,1.14.21.74.06,1.51,0,2.19-.12.63-.11,1.18-.18,1.72-.16.39,0,.79.07,1.18.25.13.06.26.13.38.22l.09.06s0,0,0,0h.01s.11.06.17.05c.15-.01.26-.14.25-.29-.06-.83-.66-1.48-1.37-1.85-.1-.05-.21-.1-.31-.14-.83-.32-1.72-.33-2.47-.2-.7.12-1.33.26-1.99.42l-.96.25c-.31.09-1.06.23-1.06.23-.02,0-.03,0-.05.02-.11.05-.16.18-.11.29.13.28.39.42.57.52Z" style="fill:#5f676f; stroke-width:0px;"/><path d="M56.76,65.22c-.11-.07-.24-.12-.37-.17-.2-.09-.41-.13-.63-.12-.04,0-.08,0-.11,0,1.46,1.72.7,3.2.02,3.98-.11.03-.59.06-.7.07.17-.16.31-.34.42-.54.15-.28.24-.59.24-.92,0-.81-.5-1.5-1.24-1.86-.11-.05-.22-.1-.33-.14-.2-.09-.41-.13-.63-.12-.04,0-.08,0-.11,0,1.49,2.24.45,3.3-.18,3.73-.14.02-.49.07-.64.08.03-.02.99-.97.29-1.84-.17-.21-.37-.36-.6-.45-.23-.1-.48-.12-.73-.09,0,0,0,.01-.01,0v.06c1.48,1.68-1.12,2.61-1.11,2.62h0c.21.07.65.23.68.24,1.22.31,5.75,1.02,6.71-1.33.12-.29.24-.83.24-1.16,0-.73-.39-1.61-1.2-2.07Z" style="fill:#5f676f; stroke-width:0px;"/><path d="M48.32,50.61c-.47-.86-1.13-1.42-1.92-1.54-.43-.07-.86,0-1.29.18,0,0-.08.04-.08.04-.32.15-.64.35-.94.62-1.24,1.08-2.3,3.09-2.74,5.49-.42,2.29-.18,4.41.54,5.82.47.93,1.15,1.55,1.99,1.68.82.13,1.67-.24,2.44-.96,1.19-1.11,2.19-3.06,2.62-5.38.43-2.37.16-4.56-.6-5.96ZM42.66,54.69c.48-1.81,1.22-2.8,1.22-2.8.42-.62.9-1.07,1.38-1.32.39-.22.89-.25,1.38-.03.25.11.47.29.64.51,0,0,0,0,0,0,.03.05.05.09.08.13.03.06.07.12.1.19.17.34.28.69.37,1.1.01.05.02.1.03.15.18,1.25.17,1.43.16,2.74,0,.07-.03.57-.04.64-.06.49-.26,1.52-.83,2.91-.17.54-.57,1.03-.55,1.04-.68,1.15-1.73,1.83-2.45,1.74-.54-.06-.84-.37-1.02-.57-.5-.57-.54-.88-.62-1.13-.17-.54-.14-.81-.17-1.1-.13-1.41.02-2.45.18-3.39.02-.13.09-.45.13-.65,0,0,.01-.07.03-.14" style="fill:#5f676f; stroke-width:0px;"/><path d="M42.76,54.66c.01-.06.02-.1.03-.14" style="fill:#5f676f; stroke-width:0px;"/><path d="M74.67,43.92c-.06-.21-.21-.37-.39-.47-.18-.1-.39-.13-.6-.06h-.03c-.9.28-1.84.56-2.76.77-.46.11-.92.22-1.38.33-.46.1-.91.18-1.41.24-.97.13-1.94.24-2.91.32-.62.05-1.26.09-1.88.12.09-.02.18-.05.27-.07.27-.07.53-.15.8-.23.52-.16,1.04-.34,1.55-.53,1.02-.37,2-.78,2.99-1.21.98-.42,2.02-.9,2.93-1.49.92-.61,1.78-1.24,2.59-2.03.25-.24.31-.63.13-.95-.08-.14-.2-.25-.34-.31-.23-.11-.5-.12-.74.02l-.03.02c-.85.49-1.75,1-2.65,1.43-.91.45-1.77.87-2.74,1.2-.96.34-1.94.65-2.92.92-.49.14-.98.26-1.46.37l-.33.07c.25-.1.49-.21.72-.33.53-.26,1.04-.53,1.54-.82.99-.57,1.95-1.19,2.88-1.82.95-.64,1.9-1.34,2.73-2.14.83-.81,1.59-1.65,2.25-2.63.2-.29.18-.69-.07-.96-.07-.08-.16-.14-.26-.18-.28-.13-.62-.09-.86.13l-.03.03c-.76.69-1.58,1.41-2.42,2.04-.84.65-1.66,1.28-2.58,1.8-.17.1-.35.19-.52.29-.76.43-1.54.85-2.31,1.23-.15.07-.3.14-.45.21-.28.13-.57.25-.85.37.05-.03.1-.07.15-.11.33-.24.65-.48.96-.73.17-.14.34-.27.51-.41.91-.78,1.76-1.6,2.58-2.43.01-.01.02-.02.03-.03.86-.88,1.67-1.79,2.36-2.79.68-1.01,1.28-2.03,1.76-3.19.13-.33.03-.72-.27-.93,0,0-.01,0-.01,0,0,0,0,0,0,0-.35-.25-.84-.16-1.08.19l-.02.03c-.62.89-1.31,1.8-2.04,2.64-.22.25-.43.5-.65.75-.51.58-1.04,1.15-1.61,1.65-.29.25-.58.5-.87.74-.52.44-1.05.87-1.59,1.28.08-.11.17-.22.25-.33.45-.61.86-1.24,1.25-1.86.27-.44.54-.87.8-1.32.46-.76.87-1.54,1.23-2.35.16-.36.31-.72.45-1.09.43-1.2.78-2.4.96-3.7.05-.36-.16-.71-.51-.84,0,0,0,0,0,0,0,0,0,0-.01,0-.4-.14-.85.07-.99.47v.04c-.34.92-.74,1.87-1.16,2.79-.07.15-.13.3-.2.44-.48.99-.99,1.97-1.57,2.89-.03.05-.07.11-.1.16-.44.65-.9,1.28-1.37,1.89-1.45,1.62-3.9,3.24-5.23,3.88-.64.31-1.3.74-1.96,1.07-.01,0-.02.01-.03.02-.45.22-.83.56-1.05,1-.06.11-.1.23-.14.35-.07.21-.11.44-.11.68,0,.85.46,1.66,1.15,2.02.23.12.49.2.76.21.05,0,.08,0,.12-.01.24-.02.37-.13.37-.13,0,0-.19-.5.1-.72.05-.03.1-.06.15-.08.13-.06.28-.09.43-.09.14,0,.28.03.4.08.37.16.63.53.63.96,0,.53-.4.96-.91,1.03-.23.09-.68.11-.96.11-.59,0-1.16-.06-1.72-.16-.77-.14-1.49-.38-2.18-.69-.83-.38-2.35-1.5-2.32-1.56-1.56-1.45-2.55-3.45-2.64-5.65,0-.1-.02-.2-.02-.3,0-.32.02-.66.06-.97.06-.54.19-1.08.36-1.6.31-.92.77-1.79,1.36-2.53.06-.07.33-.37.67-.71.02-.02.04-.04.06-.06,0,0,0,0,.01-.01.38-.38.84-.79,1.24-1.05,0,0,0,0,0,0,0,0,0,0,0,0-.03-.02-.07-.06-.11-.1-.05-.05-.1-.1-.13-.13-.72-.07-.98-.41-1.1-.7,0,0,0-.02-.01-.03,0-.02-.02-.05-.03-.07-.04-.11-.04-.44-.02-.48.05-.27.21-.53.35-.66.06-.07.13-.14.2-.19.22-.17.46-.26.72-.31.07-.01.13-.03.2-.03,0,0,.02,0,.03,0,.67-.07,1.33.22,1.59.9h0s-.42.1-.42.1h0s0,0,0,0c-.14-.29-.37-.42-.63-.4-.09,0-.18.03-.28.07-.06.02-.12.06-.16.1-.43.37-.05,1.29.54,1.35.09,0,.19,0,.29-.04,0,0,0,0,.01,0,.26-.1,1.92-.5,2.92-.66.19-.03.36-.05.49-.06,0,0,0,0,.01,0,0,0,0,0,0,0,0,0,0,0,0,0,.17-.28.18-2.12-1.27-2.72-1.15-.47-2.14-.55-3.04-.55-.82,0-1.56.08-2.32.25-2.95.65-4.75,2.36-6.4,6.06h0c-1.12,2.19-1.52,4.29-1.68,4.86,0,0-.06,0-.16,0-.17-.62-.57-2.71-1.66-4.86h0c-1.65-3.7-3.45-5.41-6.41-6.06-.76-.17-1.51-.25-2.33-.25-.9,0-1.9.08-3.04.55-1.45.6-1.44,2.44-1.27,2.72,0,0,0,0,.01,0,.13,0,.3.03.49.06,1,.16,2.66.56,2.92.66,0,0,0,0,.01,0,.1.04.2.05.29.04.66-.07,1.05-1.19.39-1.45-.1-.04-.19-.06-.28-.07-.27-.02-.5.1-.63.4h0s0,0,0,0c0,0-.41-.08-.43-.1h0c.27-.69.93-.98,1.59-.91,0,0,.02,0,.03,0,.07,0,.13.02.2.03.35.07.67.21.93.5.14.13.3.39.35.66.01.05.01.37-.02.48,0,.02-.02.05-.03.07,0,0,0,.02-.01.03-.12.29-.38.63-1.1.7-.03.03-.08.08-.13.13-.04.04-.09.08-.11.1.42.28.92.73,1.31,1.13.35.34.61.64.67.71.59.74,1.06,1.61,1.36,2.53.17.52.29,1.05.36,1.6.04.31.06.66.06.97,0,.1-.01.21-.02.31,0,.18-.02.37-.04.55-.2.92-.61,2.43-1.37,3.7-.04.06-.08.12-.12.17h.01c-.29.46-.63.88-1.03,1.22.02.06-1.5,1.18-2.32,1.56-.68.31-1.41.55-2.18.69-.56.1-1.13.16-1.72.16-.28,0-.73-.01-.96-.11-.51-.07-.91-.5-.91-1.03,0-.43.26-.8.63-.96.12-.05.26-.08.4-.08.15,0,.3.03.43.09.05.02.1.05.15.08.28.22.1.72.1.72,0,0,.13.1.37.13.04,0,.08.01.12.01.27,0,.53-.08.76-.21.69-.36,1.15-1.18,1.15-2.02,0-.24-.04-.46-.11-.68-.04-.12-.09-.24-.14-.35-.23-.44-.61-.79-1.05-1-.01,0-.02-.01-.03-.02-.66-.32-1.32-.75-1.96-1.07-1.32-.64-3.77-2.26-5.23-3.88-.47-.61-.93-1.24-1.37-1.89-.04-.05-.07-.11-.1-.16-.59-.92-1.09-1.9-1.57-2.89-.07-.14-.13-.29-.2-.44-.43-.92-.82-1.87-1.15-2.79v-.04c-.16-.4-.6-.62-1-.47,0,0,0,0-.01,0,0,0,0,0,0,0-.35.13-.56.48-.51.84.18,1.3.53,2.5.96,3.7.14.37.29.73.45,1.09.36.8.78,1.59,1.23,2.35.26.44.52.88.8,1.32.39.63.8,1.25,1.25,1.86.08.11.17.22.25.33-.54-.4-1.07-.83-1.59-1.28-.29-.24-.58-.49-.87-.74-.57-.51-1.1-1.07-1.61-1.65-.22-.25-.44-.5-.65-.75-.72-.84-1.41-1.75-2.04-2.64l-.02-.03c-.25-.35-.73-.43-1.08-.19,0,0,0,0,0,0,0,0-.01,0-.01,0-.3.21-.41.6-.27.93.47,1.16,1.08,2.18,1.76,3.19.69,1,1.5,1.91,2.36,2.79.01.01.02.02.03.03.82.83,1.67,1.65,2.58,2.43.17.14.34.28.51.41.31.25.62.49.96.73.05.04.1.07.15.11-.28-.12-.57-.24-.85-.37-.15-.07-.3-.14-.45-.21-.78-.37-1.55-.79-2.31-1.23-.17-.1-.35-.19-.52-.29-.92-.53-1.74-1.16-2.58-1.8-.84-.63-1.66-1.35-2.42-2.04l-.03-.03c-.24-.22-.58-.26-.86-.13-.09.04-.18.1-.26.18-.25.27-.27.67-.07.96.67.99,1.43,1.82,2.25,2.63.83.8,1.78,1.5,2.73,2.14.93.64,1.88,1.25,2.88,1.82.5.29,1.01.56,1.54.82.23.11.47.22.72.33l-.33-.07c-.49-.11-.98-.24-1.46-.37-.98-.27-1.96-.59-2.92-.92-.97-.33-1.83-.76-2.74-1.2-.9-.43-1.8-.94-2.65-1.43l-.03-.02c-.24-.14-.51-.13-.74-.02-.14.07-.26.17-.34.31-.18.31-.12.7.13.95.81.79,1.67,1.42,2.59,2.03.91.59,1.95,1.07,2.93,1.49.99.43,1.97.84,2.99,1.21.51.19,1.02.36,1.55.53.26.08.53.16.8.23.09.03.18.05.27.07-.62-.03-1.26-.07-1.88-.12-.97-.08-1.94-.19-2.91-.32-.5-.07-.95-.14-1.41-.24-.46-.1-.92-.21-1.38-.33-.92-.21-1.86-.49-2.76-.76h-.03c-.21-.07-.42-.04-.6.05-.18.09-.33.26-.39.47-.1.34.05.71.34.89.91.56,1.84.97,2.81,1.35.96.37,2.03.6,3.01.81.99.22,1.98.41,2.99.58.9.15,1.78.28,2.72.38-.57.07-1.15.13-1.72.19-.92.09-1.85.17-2.78.23-.23.02-.46.03-.7.03h-.66s-1.35-.01-1.35-.01c-.9,0-1.83-.07-2.72-.12h-.03c-.16,0-.31.03-.44.11-.22.13-.38.36-.39.63-.02.36.2.67.53.78.95.33,1.89.52,2.87.68.49.07.98.12,1.48.14.25.01.5.02.75.02h.72c.96.03,1.91.03,2.87.02.66,0,.81,0,1.47-.03l.09.29c-1.09.34-1.84.57-2.94.88-.86.24-1.67.4-2.52.58-.84.19-1.71.34-2.55.51h-.02c-.06.02-.11.04-.16.06-.34.14-.54.51-.46.88.07.35.36.59.7.62.94.08,1.85.06,2.77,0,.92-.06,1.86-.27,2.74-.43.89-.16,2.19-.47,3.07-.66l.07.22c-.36.21-1.16.63-1.52.83-.37.2-.73.39-1.1.57-.36.18-.72.35-1.09.53h0s0,0-.01,0c-.73.38-1.49.74-2.22,1.13h-.01c-.38.21-.52.69-.32,1.07.17.31.51.46.84.4.86-.16,1.68-.41,2.51-.67.82-.27,1.62-.66,2.4-1,.21-.09,1.03-.44,1.23-.53l.14.65c-.13.09-.59.41-.59.41l-.9.78c-.59.53-1.15,1.11-1.68,1.73-.28.33-.24.83.09,1.11.25.21.6.24.88.1,0,0,0,0,.01,0,0,0,0,0,0,0,.72-.38,1.41-.8,2.06-1.26l.69-.4s.38,2.27.48,3.21c.31,2.92.22,6.27.54,6.67.26.33.79.25,1.26.27-.03-.11-.05-.22-.07-.32,0-.01,0-.02,0-.03-.34-1.56.13-2.72.42-3.19,0,0,0-.02,0-.03,0-.01.03-.1.03-.12-.1-1.86-.35-4.85-.77-7.17-.67-3.7-1.79-9.64-2.11-11.32-.02-.1.02-.19.08-.25.07-.06.17-.09.27-.07,1.14.29,3,.46,4.21.53.9.06,3.05.05,5.26-.63-.94,2.21-1.47,4.75-1.47,7.45,0,5.29,2.05,9.97,5.18,12.78-.37.06-.64.11-.72.14-.81.28-1.44.69-1.79.89,0,0-.01.01-.02.02-.02.01-.05.02-.07.03-.12.07-.13.21-.1.34.08.38.29.86.5,1.14.05.06.09.12.17.13,2.93.15,5.08.37,6.8,1.46,0,0,.02,0,.02.02.05.03.09.07.14.1.81.64,1.14,1.97.48,2.91-.23.24-.47.46-.7.68-.8.69-1.67,1.28-2.59,1.72-.91.45-1.87.72-2.84.86-.97.18-1.95.31-3.22.61h0s-.08.03-.11.05c-.11.07-.16.2-.13.33.01.05.04.1.07.14.93,1.01,2.31,1.41,3.64,1.33,1.01-.08,1.98-.37,2.88-.79.3-.14.59-.3.87-.47,1.11-.68,2.06-1.58,2.78-2.63.01-.02.03-.04.04-.07,0,.01,0,.02,0,.03-.16.57-.7,2.06-1.14,2.56-.44.5-.84.99-1.3,1.37-.35.28-.71.52-1.11.73-.13.07-.27.13-.41.19-.58.24-1.25.4-2.04.57h0s-.08.03-.11.05c-.1.06-.16.18-.13.31.02.07.06.14.11.18.7.5,1.59.73,2.5.68.46-.03.93-.14,1.37-.32.43-.18.84-.42,1.2-.72.12-.1.22-.21.32-.32.2.4.42.81.57,1.21.2.48.37.96.63,1.44.06.11.19.16.24.15,0,0,.21-.04.26-.15.26-.48.45-.96.65-1.44.16-.4.37-.8.57-1.21.11.11.2.22.32.32.36.3.77.54,1.2.72.44.18.9.29,1.37.32.92.05,1.8-.18,2.5-.68.06-.04.1-.1.11-.18.03-.12-.03-.24-.13-.31-.03-.02-.07-.04-.11-.05h0c-.79-.17-1.46-.33-2.04-.57-.14-.06-.28-.12-.41-.19-.4-.2-.77-.44-1.11-.73-.46-.38-.86-.86-1.3-1.37-.43-.5-.98-1.99-1.14-2.56,0-.01,0-.02,0-.03.01.02.03.04.04.07.72,1.05,1.67,1.94,2.78,2.63.28.17.57.33.87.47.89.43,1.87.72,2.88.79,1.33.07,2.71-.32,3.64-1.33.03-.04.06-.09.07-.14.03-.13-.03-.26-.13-.33-.03-.02-.07-.04-.11-.05h0c-1.27-.3-2.24-.43-3.22-.61-.97-.14-1.92-.42-2.84-.86-.91-.44-1.78-1.03-2.59-1.72-.24-.22-.47-.44-.7-.68-.66-.95-.34-2.27.48-2.91.05-.03.09-.07.14-.1,0,0,.02,0,.02-.02,1.72-1.09,3.88-1.32,6.8-1.46.08,0,.12-.06.17-.13.21-.28.42-.76.5-1.14.03-.14.02-.27-.1-.34-.02-.01-.05-.02-.07-.03,0,0-.02-.01-.03-.02-.35-.21-.99-.61-1.8-.89-.07-.03-.34-.08-.69-.13,3.13-2.81,5.19-7.49,5.19-12.79,0-2.7-.54-5.23-1.48-7.45,2.2.67,4.34.68,5.24.62,1.21-.08,3.07-.25,4.21-.53.1-.03.2,0,.27.07.06.06.1.15.08.25-.32,1.68-1.44,7.61-2.11,11.32-.42,2.32-.67,5.32-.77,7.17,0,.02.03.11.03.12,0,0,0,.02,0,.03.29.47.75,1.62.42,3.19,0,.01,0,.02,0,.03-.02.11-.04.21-.07.32.47-.01.99.06,1.26-.27.32-.39.23-3.75.54-6.67.1-.94.47-3.19.48-3.21l.69.4c.65.47,1.34.89,2.06,1.26,0,0,0,0,0,0,0,0,0,0,.01,0,.28.14.62.12.88-.1.33-.28.37-.78.09-1.11-.53-.62-1.08-1.2-1.68-1.73l-.9-.78s-.46-.32-.59-.41l.14-.65c.21.09,1.02.44,1.23.53.78.34,1.58.72,2.4,1,.83.27,1.65.51,2.51.67.33.06.67-.09.84-.4.21-.38.06-.86-.32-1.06h-.01c-.73-.4-1.49-.76-2.22-1.14,0,0,0,0-.01,0h0c-.36-.18-.73-.36-1.09-.53-.37-.18-.73-.36-1.1-.57-.37-.2-1.16-.62-1.52-.83l.07-.22c.88.18,2.18.49,3.07.66.88.16,1.81.37,2.74.43.93.06,1.84.08,2.77,0,.33-.03.63-.27.7-.62.08-.37-.12-.73-.46-.88-.05-.02-.11-.04-.16-.05h-.02c-.84-.18-1.71-.33-2.55-.52-.85-.18-1.66-.33-2.52-.58-1.1-.31-1.85-.53-2.94-.88l.09-.29c.66.02.81.02,1.47.03.96.01,1.91,0,2.87-.01h.72c.25-.01.5-.02.75-.03.5-.02.99-.07,1.48-.14.98-.16,1.92-.35,2.87-.68.32-.11.54-.42.53-.78-.01-.27-.17-.51-.39-.63-.13-.08-.28-.12-.44-.11h-.03c-.89.05-1.82.11-2.72.12l-1.35.03h-.66c-.24-.02-.47-.03-.7-.05-.93-.06-1.85-.14-2.78-.23-.57-.06-1.15-.12-1.72-.19.94-.1,1.82-.23,2.72-.38,1-.17,2-.36,2.99-.58.98-.2,2.05-.44,3.01-.81.97-.38,1.9-.79,2.81-1.35.29-.18.44-.54.34-.89ZM40.67,67.78s-.03,0-.04,0c-3.48-.02-6.56-2.36-8.42-5.91.87-1.46,2.66-4.65,2.66-4.65.17.65,1.17,4.98,1.17,4.98,0,0-1.26.55-.62.94.64.39,2,.1,2,.1,0,0,.34.31.72.57.44.33.94.58,1.48.72.2.08.35.13.35.13,0,0-.13.6.06.91.08.12.15.23.39.23.07,0,.14-.02.21-.04.21-.08.41-.25.53-.36.29-.3.4-.51.61-.81,0-.01,0-.03.02-.06.52-.14,1.06-.33,1.58-.98-1.26-.49-2.34-1.65-2.75-3.55-.15-.7-.24-1.45-.24-2.25,0-.84.06-1.71.22-2.61,0-.03.01-.06.02-.09.59-3.12,2.54-5.51,3.1-5.71-.17-.4-.1-1.42-1.46-1.98-.29-.12-1.2-.18-1.29-.59.43-.29.75-.84.83-1.5.11-.88-.26-1.67-.86-1.96.14-.32.49-.77.49-.77l-.68-.73-.14.07-.74.4s.22.64.22.98c-.59.19-1.02.66-1.12,1.47-.05.4.17,1.02.63,1.48.25.25.3.46.14.61-.33.33-1.03.25-1.38.77-.22.33-.49,1.08-.49,1.08-.17.34-1.15,2.7-1.64,3.53-.12.21-.61.98-.61.98,0,0-.21.15-.45.34-.19.16-.41.34-.54.51-.37.48-.22,1.33,0,1.69l-2.87,5.24c-.11-.24-.17-.37-.17-.37-.81-1.97-1.27-4.22-1.27-6.62,0-7.34,4.3-13.36,9.7-13.79h1.25c.6.05,1.18.17,1.74.35.3.09.59.2.87.33,4.11,1.83,7.08,7.01,7.08,13.11,0,7.62-4.63,13.81-10.32,13.81ZM39.61,52.82s-2.01.76-2.97,1.15l1.96-3.39s.09.48.89.81c-.02.12.12,1.44.12,1.44Z" style="fill:#5f676f; stroke-width:0px;"/><path d="M37.71,4.55s.07-.02.1-.02c.14.24.39.41.7.41h0c.3,0,.55-.16.7-.41h1.09v.71c-.7.17-1.22.8-1.22,1.55,0,.4.16.76.4,1.04-.26.09-.5.24-.71.42-.63.6-.79,1.88-.25,3.38.37,1.04.93,1.9,1.45,2.41.24.26.48.37.69.37h.06c.22,0,.46-.11.69-.37.53-.51,1.08-1.37,1.45-2.41.54-1.51.38-2.78-.25-3.38-.21-.19-.46-.33-.73-.43.23-.28.39-.64.39-1.03,0-.75-.52-1.38-1.21-1.55v-.71h1.1c.13.24.39.41.69.41h0c.31,0,.57-.17.71-.43.03.01.06.02.09.02.21,0,.38-.17.38-.38s-.17-.38-.38-.38c-.03,0-.06.01-.09.02-.14-.26-.4-.44-.71-.44h0c-.3,0-.56.16-.69.41h-1.1v-1.44c.25-.14.41-.39.41-.7s-.18-.58-.44-.71c.02-.04.02-.08.02-.12,0-.21-.17-.38-.38-.38s-.38.17-.38.38c0,.04.01.08.03.12-.27.13-.45.4-.45.71s.16.55.41.7v1.44h-1.09c-.14-.25-.4-.41-.7-.41h0c-.31,0-.59.19-.72.46-.03,0-.06,0-.08,0-.21,0-.38.16-.38.38s.17.38.38.38Z" style="fill:#5f676f; stroke-width:0px;"/><path d="M47.88,55.04c-.16-.16-.36-.22-.53-.22.1-.2.16-.48.09-.68-.02-.06-.05-.11-.09-.16h0c-.23-.29-.42-.36-.52-.38-.06-.01-.37-.05-.53.16l-.03-.26c-.12.1-.24.44-.27.52-.07.2-.2.7-.2.7.38-.6.58-.67.91-.76-.28.2-.51.65-.64,1.06l.75-.51-.17-.12c.09-.15.18-.21.35-.12.06.03.09.09.11.18,0,.06,0,.23-.14.43h0l-1.36,1.18c-.1.08-.14.17-.13.45,0,.09.1.2.27.04l1.46-1.3c.07-.06.18,0,.21.04.08.12.04.38-.18.71l-.12-.28c-.12.17-.35.58-.55.79,0,0,.38.03.68-.2.08-.06.15-.12.21-.19-.24.62-.8,1.06-.8,1.06,0,0,.38-.04.58-.14.21-.11.41-.24.58-.43l-.28-.09c.14-.19.36-.43.45-.81.07-.3.03-.53-.12-.67Z" style="fill:#5f676f; stroke-width:0px;"/><path d="M44.77,55.11l.18-.91-.25.19s-.18-.25-.24-.32c-.24-.27-.48-.38-.71-.33-.27.05-.33.24-.66.15.01.25-.24.35-.38.55-.14.2-.14.46,0,.79.04.08.2.35.2.35l-.31.1.99.29c0-.1-.11-.77-.11-.77l-.23.17c-.09-.11-.13-.19-.19-.29-.09-.16-.15-.28-.1-.39.04-.1.2-.11.28-.12l1.1,1.74c.05.11.16.11.19.04.1-.21.11-.44.06-.5l-.98-1.51c.04-.08.15-.17.23-.18.14-.03.2.01.33.13.09.08.18.21.22.27l-.26.1c.19.13.53.36.64.45Z" style="fill:#5f676f; stroke-width:0px;"/><path d="M44.96,51.99c.15.21.41.48.53.59,0,0-.17.21-.2.25-.1.18.35.25.38.25.05,0,.48.1.44-.11,0-.05-.13-.29-.13-.29.15-.06.52-.24.73-.39.03-.02.09-.07.12-.1.41-.51.27-.83.27-.83l-.76.48c-.07.05-.11,0-.11,0,.07-.04.16-.27.18-.33.03-.09,0-.16-.12-.18-.1-.02-.15.01-.15.01.02-.04.02-.04.03-.06,0,0,0-.01.01-.02,0-.01,0-.03.01-.04,0,0,0,0,0,0,0,0,0,0,0-.02,0-.11-.09-.2-.2-.19-.09,0-.16.06-.18.14,0,0,0,0,0,.02,0,.04-.01.02,0,.13,0,0-.04-.05-.14-.06-.11-.02-.14.03-.15.13,0,.06-.02.25.03.38,0,0-.05.03-.1-.04l-.55-.71s-.24.25-.03.87c.01.04.06.11.08.13Z" style="fill:#5f676f; stroke-width:0px;"/><path d="M44.15,57.92c.08-.08.14-.19.16-.3l.04-.22c.02-.13-.11-.19-.21-.11l-1.28,1.22-.03.03s-.06-.02-.1-.03c-.06,0-.11,0-.17.02-.06.02-.11.05-.16.1-.19.18-.23.49-.08.71.07.11.18.17.3.19.09.01.19-.01.27-.06.02-.01.04-.03.06-.05.12-.11.21-.31.16-.49l1.05-1.01ZM42.67,59.25c-.11,0-.2-.09-.2-.2s.09-.2.2-.2.2.09.2.2-.09.2-.2.2Z" style="fill:#5f676f; stroke-width:0px;"/><path d="M46.56,58.97s-.1,0-.14.01l-.95-1.49c-.07-.1-.19-.09-.21.04l-.04.13c-.03.15-.05.16.1.46l.76,1.16c-.07.18-.06.39.04.55.08.11.18.18.3.19.12.02.24-.03.34-.12,0,0,0,0,0,0,.19-.18.23-.51.08-.73-.07-.11-.18-.18-.3-.19ZM46.5,59.68c-.11,0-.2-.09-.2-.2s.09-.2.2-.2.2.09.2.2-.09.2-.2.2Z" style="fill:#5f676f; stroke-width:0px;"/><path d="M44.47,60.54c.28-1.5,1.01-5.42,1.02-5.46.05-.32.23-1.17.27-1.65.03-.18-.27-.29-.33-.04-.09.35-.3,1.25-.36,1.6h0s-.79,3.95-1.09,5.47c-.02.09-.06.17-.12.24-.04.05-.06.11-.07.18-.04.22.09.42.29.45.2.03.38-.12.42-.34,0-.05,0-.1,0-.15-.02-.1-.03-.21-.01-.31Z" style="fill:#5f676f; stroke-width:0px;"/><rect x="45.36" y="58.73" width="1.45" height=".31" rx=".07" ry=".07" transform="translate(-26.11 39.4) rotate(-36.85)" style="fill:#5f676f; stroke-width:0px;"/></svg>